<mxfile host="65bd71144e">
    <diagram id="dY25MCoz69Qp2hoGZlp1" name="Página-1">
        <mxGraphModel dx="4853" dy="2697" grid="1" gridSize="10" guides="1" tooltips="1" connect="1" arrows="1" fold="1" page="1" pageScale="1" pageWidth="3300" pageHeight="2339" math="0" shadow="0">
            <root>
                <mxCell id="0"/>
                <mxCell id="1" parent="0"/>
                <mxCell id="0Y5nADWUnqRcL9e2HvBY-87" value="" style="group" parent="1" connectable="0" vertex="1">
                    <mxGeometry x="1420" y="610" width="460" height="220" as="geometry"/>
                </mxCell>
                <mxCell id="0Y5nADWUnqRcL9e2HvBY-88" value="1: n" style="group" parent="0Y5nADWUnqRcL9e2HvBY-87" connectable="0" vertex="1">
                    <mxGeometry x="360" width="100" height="220" as="geometry"/>
                </mxCell>
                <mxCell id="0Y5nADWUnqRcL9e2HvBY-89" value="&lt;b&gt;&lt;u&gt;niño_id*&lt;/u&gt;&lt;/b&gt;" style="ellipse;whiteSpace=wrap;html=1;fillColor=#30519F;strokeColor=none;gradientColor=none;strokeWidth=2;" parent="0Y5nADWUnqRcL9e2HvBY-88" vertex="1">
                    <mxGeometry x="-680" y="-25" width="100" height="40" as="geometry"/>
                </mxCell>
                <mxCell id="0Y5nADWUnqRcL9e2HvBY-92" value="" style="group;fontStyle=4" parent="0Y5nADWUnqRcL9e2HvBY-87" connectable="0" vertex="1">
                    <mxGeometry x="-680" y="-60" width="289" height="110" as="geometry"/>
                </mxCell>
                <mxCell id="0Y5nADWUnqRcL9e2HvBY-93" value="&lt;b style=&quot;font-size: 16px;&quot;&gt;INSCRIPCIÓN&lt;/b&gt;" style="rounded=0;whiteSpace=wrap;html=1;fillColor=#1B213D;strokeColor=none;fontColor=#ffffff;aspect=fixed;" parent="0Y5nADWUnqRcL9e2HvBY-92" vertex="1">
                    <mxGeometry x="149" y="20" width="140" height="70" as="geometry"/>
                </mxCell>
                <mxCell id="0Y5nADWUnqRcL9e2HvBY-94" value="" style="endArrow=none;html=1;exitX=1;exitY=0.5;exitDx=0;exitDy=0;entryX=0;entryY=0.5;entryDx=0;entryDy=0;" parent="0Y5nADWUnqRcL9e2HvBY-92" source="0Y5nADWUnqRcL9e2HvBY-97" target="0Y5nADWUnqRcL9e2HvBY-93" edge="1">
                    <mxGeometry width="50" height="50" relative="1" as="geometry">
                        <mxPoint x="189" y="168" as="sourcePoint"/>
                        <mxPoint x="139" y="78" as="targetPoint"/>
                    </mxGeometry>
                </mxCell>
                <mxCell id="0Y5nADWUnqRcL9e2HvBY-95" value="" style="group" parent="0Y5nADWUnqRcL9e2HvBY-92" connectable="0" vertex="1">
                    <mxGeometry width="100" height="110" as="geometry"/>
                </mxCell>
                <mxCell id="0Y5nADWUnqRcL9e2HvBY-97" value="&lt;b&gt;&lt;u&gt;padre_id*&lt;/u&gt;&lt;/b&gt;" style="ellipse;whiteSpace=wrap;html=1;fillColor=#30519F;strokeColor=none;gradientColor=none;strokeWidth=2;" parent="0Y5nADWUnqRcL9e2HvBY-95" vertex="1">
                    <mxGeometry x="-10" y="35" width="100" height="40" as="geometry"/>
                </mxCell>
                <mxCell id="4" value="&lt;b&gt;&lt;u&gt;inscripcion_id*&lt;/u&gt;&lt;/b&gt;" style="ellipse;whiteSpace=wrap;html=1;fillColor=#30519F;strokeColor=none;gradientColor=none;strokeWidth=2;" parent="0Y5nADWUnqRcL9e2HvBY-95" vertex="1">
                    <mxGeometry x="-10" y="-30" width="100" height="40" as="geometry"/>
                </mxCell>
                <mxCell id="5" value="" style="endArrow=none;html=1;exitX=1;exitY=0.5;exitDx=0;exitDy=0;entryX=0;entryY=0;entryDx=0;entryDy=0;" parent="0Y5nADWUnqRcL9e2HvBY-92" source="4" target="0Y5nADWUnqRcL9e2HvBY-93" edge="1">
                    <mxGeometry width="50" height="50" relative="1" as="geometry">
                        <mxPoint x="99.9999999999975" y="65" as="sourcePoint"/>
                        <mxPoint x="159" y="65" as="targetPoint"/>
                    </mxGeometry>
                </mxCell>
                <mxCell id="0Y5nADWUnqRcL9e2HvBY-99" style="html=1;endArrow=none;endFill=0;entryX=0;entryY=0.5;entryDx=0;entryDy=0;exitX=1;exitY=0.5;exitDx=0;exitDy=0;" parent="0Y5nADWUnqRcL9e2HvBY-87" source="0Y5nADWUnqRcL9e2HvBY-93" target="0Y5nADWUnqRcL9e2HvBY-89" edge="1">
                    <mxGeometry relative="1" as="geometry">
                        <mxPoint x="-301" y="-75" as="targetPoint"/>
                        <mxPoint x="-380" y="-25" as="sourcePoint"/>
                    </mxGeometry>
                </mxCell>
                <mxCell id="rqGh7gBejv3GAogL9kbs-148" value="" style="group" parent="1" connectable="0" vertex="1">
                    <mxGeometry x="740" y="240" width="460" height="220" as="geometry"/>
                </mxCell>
                <mxCell id="rqGh7gBejv3GAogL9kbs-149" value="" style="group" parent="rqGh7gBejv3GAogL9kbs-148" connectable="0" vertex="1">
                    <mxGeometry x="360" width="100" height="220" as="geometry"/>
                </mxCell>
                <mxCell id="rqGh7gBejv3GAogL9kbs-151" value="ciudad" style="ellipse;whiteSpace=wrap;html=1;fillColor=#30519F;strokeColor=none;gradientColor=none;strokeWidth=2;" parent="rqGh7gBejv3GAogL9kbs-149" vertex="1">
                    <mxGeometry y="140" width="100" height="40" as="geometry"/>
                </mxCell>
                <mxCell id="rqGh7gBejv3GAogL9kbs-273" value="telf1" style="ellipse;whiteSpace=wrap;html=1;fillColor=#30519F;strokeColor=none;gradientColor=none;strokeWidth=2;" parent="rqGh7gBejv3GAogL9kbs-149" vertex="1">
                    <mxGeometry width="100" height="40" as="geometry"/>
                </mxCell>
                <mxCell id="rqGh7gBejv3GAogL9kbs-274" value="telf2" style="ellipse;whiteSpace=wrap;html=1;fillColor=#30519F;strokeColor=none;gradientColor=none;strokeWidth=2;" parent="rqGh7gBejv3GAogL9kbs-149" vertex="1">
                    <mxGeometry y="70" width="100" height="40" as="geometry"/>
                </mxCell>
                <mxCell id="rqGh7gBejv3GAogL9kbs-153" value="" style="group" parent="rqGh7gBejv3GAogL9kbs-148" connectable="0" vertex="1">
                    <mxGeometry y="75" width="289" height="110" as="geometry"/>
                </mxCell>
                <mxCell id="rqGh7gBejv3GAogL9kbs-154" value="&lt;font style=&quot;font-size: 16px;&quot;&gt;&lt;b&gt;TUTOR&lt;/b&gt;&lt;/font&gt;" style="rounded=0;whiteSpace=wrap;html=1;fillColor=#1B213D;strokeColor=none;fontColor=#ffffff;aspect=fixed;" parent="rqGh7gBejv3GAogL9kbs-153" vertex="1">
                    <mxGeometry x="149" y="20" width="140" height="70" as="geometry"/>
                </mxCell>
                <mxCell id="rqGh7gBejv3GAogL9kbs-161" style="html=1;endArrow=none;endFill=0;entryX=0;entryY=0.5;entryDx=0;entryDy=0;exitX=1;exitY=0.5;exitDx=0;exitDy=0;" parent="rqGh7gBejv3GAogL9kbs-148" source="rqGh7gBejv3GAogL9kbs-154" target="rqGh7gBejv3GAogL9kbs-151" edge="1">
                    <mxGeometry relative="1" as="geometry">
                        <mxPoint x="379" y="120" as="targetPoint"/>
                        <mxPoint x="300" y="120" as="sourcePoint"/>
                    </mxGeometry>
                </mxCell>
                <mxCell id="rqGh7gBejv3GAogL9kbs-275" value="" style="endArrow=none;html=1;entryX=0;entryY=1;entryDx=0;entryDy=0;exitX=1;exitY=0;exitDx=0;exitDy=0;" parent="rqGh7gBejv3GAogL9kbs-148" source="rqGh7gBejv3GAogL9kbs-154" target="rqGh7gBejv3GAogL9kbs-273" edge="1">
                    <mxGeometry width="50" height="50" relative="1" as="geometry">
                        <mxPoint x="150" y="260" as="sourcePoint"/>
                        <mxPoint x="200" y="210" as="targetPoint"/>
                    </mxGeometry>
                </mxCell>
                <mxCell id="rqGh7gBejv3GAogL9kbs-276" value="" style="endArrow=none;html=1;entryX=0;entryY=0.5;entryDx=0;entryDy=0;exitX=1;exitY=0.25;exitDx=0;exitDy=0;" parent="rqGh7gBejv3GAogL9kbs-148" source="rqGh7gBejv3GAogL9kbs-154" target="rqGh7gBejv3GAogL9kbs-274" edge="1">
                    <mxGeometry width="50" height="50" relative="1" as="geometry">
                        <mxPoint x="150" y="260" as="sourcePoint"/>
                        <mxPoint x="200" y="210" as="targetPoint"/>
                    </mxGeometry>
                </mxCell>
                <mxCell id="rqGh7gBejv3GAogL9kbs-270" value="email" style="ellipse;whiteSpace=wrap;html=1;fillColor=#30519F;strokeColor=none;gradientColor=none;strokeWidth=2;" parent="rqGh7gBejv3GAogL9kbs-148" vertex="1">
                    <mxGeometry x="70" y="-10" width="100" height="40" as="geometry"/>
                </mxCell>
                <mxCell id="rqGh7gBejv3GAogL9kbs-272" value="" style="endArrow=none;html=1;exitX=0.59;exitY=1.05;exitDx=0;exitDy=0;entryX=0.329;entryY=-0.014;entryDx=0;entryDy=0;entryPerimeter=0;exitPerimeter=0;" parent="rqGh7gBejv3GAogL9kbs-148" source="rqGh7gBejv3GAogL9kbs-270" target="rqGh7gBejv3GAogL9kbs-154" edge="1">
                    <mxGeometry width="50" height="50" relative="1" as="geometry">
                        <mxPoint x="150" y="260" as="sourcePoint"/>
                        <mxPoint x="200" y="210" as="targetPoint"/>
                    </mxGeometry>
                </mxCell>
                <mxCell id="2" value="dni" style="ellipse;whiteSpace=wrap;html=1;fillColor=#30519F;strokeColor=none;gradientColor=none;strokeWidth=2;" parent="rqGh7gBejv3GAogL9kbs-148" vertex="1">
                    <mxGeometry x="230" y="-10" width="100" height="40" as="geometry"/>
                </mxCell>
                <mxCell id="3" value="" style="endArrow=none;html=1;entryX=0.75;entryY=0;entryDx=0;entryDy=0;" parent="rqGh7gBejv3GAogL9kbs-148" source="2" target="rqGh7gBejv3GAogL9kbs-154" edge="1">
                    <mxGeometry width="50" height="50" relative="1" as="geometry">
                        <mxPoint x="169" y="52" as="sourcePoint"/>
                        <mxPoint x="205.05999999999995" y="104.01999999999998" as="targetPoint"/>
                    </mxGeometry>
                </mxCell>
                <mxCell id="rqGh7gBejv3GAogL9kbs-179" value="" style="group" parent="1" connectable="0" vertex="1">
                    <mxGeometry x="2090" y="1050" width="460" height="240" as="geometry"/>
                </mxCell>
                <mxCell id="rqGh7gBejv3GAogL9kbs-180" value="" style="group" parent="rqGh7gBejv3GAogL9kbs-179" connectable="0" vertex="1">
                    <mxGeometry x="-1470" y="-485" width="100" height="220" as="geometry"/>
                </mxCell>
                <mxCell id="rqGh7gBejv3GAogL9kbs-182" value="fecha_pago" style="ellipse;whiteSpace=wrap;html=1;fillColor=#30519F;strokeColor=none;gradientColor=none;strokeWidth=2;" parent="rqGh7gBejv3GAogL9kbs-180" vertex="1">
                    <mxGeometry x="-10" y="40" width="100" height="40" as="geometry"/>
                </mxCell>
                <mxCell id="rqGh7gBejv3GAogL9kbs-183" value="metodo_pago" style="ellipse;whiteSpace=wrap;html=1;fillColor=#30519F;strokeColor=none;gradientColor=none;strokeWidth=2;" parent="rqGh7gBejv3GAogL9kbs-180" vertex="1">
                    <mxGeometry x="-10" y="110" width="100" height="40" as="geometry"/>
                </mxCell>
                <mxCell id="rqGh7gBejv3GAogL9kbs-184" value="" style="group" parent="rqGh7gBejv3GAogL9kbs-179" connectable="0" vertex="1">
                    <mxGeometry x="-1830" y="-410" width="289" height="120" as="geometry"/>
                </mxCell>
                <mxCell id="rqGh7gBejv3GAogL9kbs-185" value="&lt;font style=&quot;font-size: 16px;&quot;&gt;&lt;b&gt;PAGO&lt;/b&gt;&lt;/font&gt;" style="rounded=0;whiteSpace=wrap;html=1;fillColor=#1B213D;strokeColor=none;fontColor=#ffffff;aspect=fixed;" parent="rqGh7gBejv3GAogL9kbs-184" vertex="1">
                    <mxGeometry x="149" y="20" width="140" height="70" as="geometry"/>
                </mxCell>
                <mxCell id="rqGh7gBejv3GAogL9kbs-188" value="&lt;b&gt;&lt;u&gt;tutor_id*&lt;/u&gt;&lt;/b&gt;" style="ellipse;whiteSpace=wrap;html=1;fillColor=#30519F;strokeColor=none;gradientColor=none;strokeWidth=2;" parent="rqGh7gBejv3GAogL9kbs-184" vertex="1">
                    <mxGeometry y="20" width="100" height="40" as="geometry"/>
                </mxCell>
                <mxCell id="rqGh7gBejv3GAogL9kbs-190" style="edgeStyle=none;shape=connector;curved=1;rounded=1;html=1;entryX=1;entryY=0.5;entryDx=0;entryDy=0;labelBackgroundColor=default;strokeColor=default;fontFamily=Helvetica;fontSize=11;fontColor=default;endArrow=none;endFill=0;exitX=-0.021;exitY=0.601;exitDx=0;exitDy=0;exitPerimeter=0;" parent="rqGh7gBejv3GAogL9kbs-184" source="rqGh7gBejv3GAogL9kbs-185" target="rqGh7gBejv3GAogL9kbs-188" edge="1">
                    <mxGeometry relative="1" as="geometry"/>
                </mxCell>
                <mxCell id="rqGh7gBejv3GAogL9kbs-181" value="&lt;b&gt;&lt;u&gt;tarifa_id*&lt;/u&gt;&lt;/b&gt;" style="ellipse;whiteSpace=wrap;html=1;fillColor=#30519F;strokeColor=none;gradientColor=none;strokeWidth=2;" parent="rqGh7gBejv3GAogL9kbs-184" vertex="1">
                    <mxGeometry y="80" width="100" height="40" as="geometry"/>
                </mxCell>
                <mxCell id="rqGh7gBejv3GAogL9kbs-191" style="html=1;endArrow=none;endFill=0;entryX=1;entryY=0.5;entryDx=0;entryDy=0;exitX=0;exitY=1;exitDx=0;exitDy=0;" parent="rqGh7gBejv3GAogL9kbs-184" source="rqGh7gBejv3GAogL9kbs-185" target="rqGh7gBejv3GAogL9kbs-181" edge="1">
                    <mxGeometry relative="1" as="geometry">
                        <mxPoint x="379" y="25" as="targetPoint"/>
                        <mxPoint x="300" y="75" as="sourcePoint"/>
                    </mxGeometry>
                </mxCell>
                <mxCell id="rqGh7gBejv3GAogL9kbs-192" style="html=1;endArrow=none;endFill=0;entryX=0;entryY=0.5;entryDx=0;entryDy=0;exitX=1;exitY=0;exitDx=0;exitDy=0;" parent="rqGh7gBejv3GAogL9kbs-179" source="rqGh7gBejv3GAogL9kbs-185" target="rqGh7gBejv3GAogL9kbs-182" edge="1">
                    <mxGeometry relative="1" as="geometry">
                        <mxPoint x="-1451" y="-365" as="targetPoint"/>
                        <mxPoint x="-1530" y="-365" as="sourcePoint"/>
                    </mxGeometry>
                </mxCell>
                <mxCell id="rqGh7gBejv3GAogL9kbs-193" style="shape=connector;rounded=1;html=1;entryX=0;entryY=0.5;entryDx=0;entryDy=0;labelBackgroundColor=default;strokeColor=default;fontFamily=Helvetica;fontSize=11;fontColor=default;endArrow=none;endFill=0;exitX=1;exitY=0.5;exitDx=0;exitDy=0;" parent="rqGh7gBejv3GAogL9kbs-179" source="rqGh7gBejv3GAogL9kbs-185" target="rqGh7gBejv3GAogL9kbs-183" edge="1">
                    <mxGeometry relative="1" as="geometry">
                        <mxPoint x="-1530" y="-355" as="sourcePoint"/>
                        <mxPoint x="-1451" y="-305" as="targetPoint"/>
                    </mxGeometry>
                </mxCell>
                <mxCell id="rqGh7gBejv3GAogL9kbs-189" value="&lt;u&gt;&lt;b&gt;id&lt;/b&gt;&lt;/u&gt;" style="ellipse;whiteSpace=wrap;html=1;fillColor=#30519F;strokeColor=none;gradientColor=none;strokeWidth=2;" parent="rqGh7gBejv3GAogL9kbs-179" vertex="1">
                    <mxGeometry x="-1830" y="-450" width="100" height="40" as="geometry"/>
                </mxCell>
                <mxCell id="rqGh7gBejv3GAogL9kbs-186" value="" style="endArrow=none;html=1;exitX=1;exitY=1;exitDx=0;exitDy=0;entryX=0;entryY=0.25;entryDx=0;entryDy=0;" parent="rqGh7gBejv3GAogL9kbs-179" source="rqGh7gBejv3GAogL9kbs-189" target="rqGh7gBejv3GAogL9kbs-185" edge="1">
                    <mxGeometry width="50" height="50" relative="1" as="geometry">
                        <mxPoint x="-1641" y="-242" as="sourcePoint"/>
                        <mxPoint x="-1691" y="-332" as="targetPoint"/>
                    </mxGeometry>
                </mxCell>
                <mxCell id="rqGh7gBejv3GAogL9kbs-195" value="" style="group" parent="1" connectable="0" vertex="1">
                    <mxGeometry x="2430" y="1280" width="470" height="220" as="geometry"/>
                </mxCell>
                <mxCell id="rqGh7gBejv3GAogL9kbs-200" value="" style="group" parent="rqGh7gBejv3GAogL9kbs-195" connectable="0" vertex="1">
                    <mxGeometry x="-220" y="-485" width="289" height="110" as="geometry"/>
                </mxCell>
                <mxCell id="rqGh7gBejv3GAogL9kbs-201" value="&lt;font style=&quot;font-size: 16px;&quot;&gt;&lt;b&gt;CRONOGRAMA&lt;/b&gt;&lt;/font&gt;" style="rounded=0;whiteSpace=wrap;html=1;fillColor=#1B213D;strokeColor=none;fontColor=#ffffff;aspect=fixed;" parent="rqGh7gBejv3GAogL9kbs-200" vertex="1">
                    <mxGeometry x="149" y="20" width="140" height="70" as="geometry"/>
                </mxCell>
                <mxCell id="rqGh7gBejv3GAogL9kbs-225" value="" style="group" parent="1" connectable="0" vertex="1">
                    <mxGeometry x="2420" y="1550" width="490" height="220" as="geometry"/>
                </mxCell>
                <mxCell id="rqGh7gBejv3GAogL9kbs-226" value="" style="group" parent="rqGh7gBejv3GAogL9kbs-225" connectable="0" vertex="1">
                    <mxGeometry x="360" width="100" height="220" as="geometry"/>
                </mxCell>
                <mxCell id="rqGh7gBejv3GAogL9kbs-227" value="&lt;b&gt;&lt;u&gt;monitor_id*&lt;/u&gt;&lt;/b&gt;" style="ellipse;whiteSpace=wrap;html=1;fillColor=#30519F;strokeColor=none;gradientColor=none;strokeWidth=2;" parent="rqGh7gBejv3GAogL9kbs-226" vertex="1">
                    <mxGeometry x="-1290" y="-200" width="100" height="40" as="geometry"/>
                </mxCell>
                <mxCell id="rqGh7gBejv3GAogL9kbs-228" value="&lt;b&gt;&lt;u&gt;cronograma_id*&lt;/u&gt;&lt;/b&gt;" style="ellipse;whiteSpace=wrap;html=1;fillColor=#30519F;strokeColor=none;gradientColor=none;strokeWidth=2;" parent="rqGh7gBejv3GAogL9kbs-226" vertex="1">
                    <mxGeometry x="-1290" y="-140" width="100" height="40" as="geometry"/>
                </mxCell>
                <mxCell id="rqGh7gBejv3GAogL9kbs-230" value="" style="group" parent="rqGh7gBejv3GAogL9kbs-225" connectable="0" vertex="1">
                    <mxGeometry x="-1290" y="-185" width="289" height="110" as="geometry"/>
                </mxCell>
                <mxCell id="rqGh7gBejv3GAogL9kbs-231" value="&lt;font style=&quot;font-size: 16px;&quot;&gt;&lt;b&gt;GRUPO&lt;br&gt;&lt;/b&gt;&lt;/font&gt;" style="rounded=0;whiteSpace=wrap;html=1;fillColor=#1B213D;strokeColor=none;fontColor=#ffffff;aspect=fixed;" parent="rqGh7gBejv3GAogL9kbs-230" vertex="1">
                    <mxGeometry x="149" y="20" width="140" height="70" as="geometry"/>
                </mxCell>
                <mxCell id="rqGh7gBejv3GAogL9kbs-232" value="" style="endArrow=none;html=1;exitX=1;exitY=0.5;exitDx=0;exitDy=0;entryX=0;entryY=0.25;entryDx=0;entryDy=0;" parent="rqGh7gBejv3GAogL9kbs-230" source="rqGh7gBejv3GAogL9kbs-235" target="rqGh7gBejv3GAogL9kbs-231" edge="1">
                    <mxGeometry width="50" height="50" relative="1" as="geometry">
                        <mxPoint x="189" y="168" as="sourcePoint"/>
                        <mxPoint x="139" y="78" as="targetPoint"/>
                    </mxGeometry>
                </mxCell>
                <mxCell id="rqGh7gBejv3GAogL9kbs-233" value="" style="group" parent="rqGh7gBejv3GAogL9kbs-230" connectable="0" vertex="1">
                    <mxGeometry width="100" height="110" as="geometry"/>
                </mxCell>
                <mxCell id="rqGh7gBejv3GAogL9kbs-235" value="&lt;b&gt;&lt;u&gt;id&lt;/u&gt;&lt;/b&gt;" style="ellipse;whiteSpace=wrap;html=1;fillColor=#30519F;strokeColor=none;gradientColor=none;strokeWidth=2;" parent="rqGh7gBejv3GAogL9kbs-233" vertex="1">
                    <mxGeometry width="100" height="40" as="geometry"/>
                </mxCell>
                <mxCell id="rqGh7gBejv3GAogL9kbs-237" style="html=1;endArrow=none;endFill=0;entryX=0;entryY=0.5;entryDx=0;entryDy=0;exitX=1;exitY=0.5;exitDx=0;exitDy=0;" parent="rqGh7gBejv3GAogL9kbs-225" source="rqGh7gBejv3GAogL9kbs-231" target="rqGh7gBejv3GAogL9kbs-227" edge="1">
                    <mxGeometry relative="1" as="geometry">
                        <mxPoint x="-911" y="-200" as="targetPoint"/>
                        <mxPoint x="-990" y="-150" as="sourcePoint"/>
                    </mxGeometry>
                </mxCell>
                <mxCell id="rqGh7gBejv3GAogL9kbs-238" style="html=1;endArrow=none;endFill=0;entryX=0;entryY=0.5;entryDx=0;entryDy=0;exitX=1;exitY=0.5;exitDx=0;exitDy=0;" parent="rqGh7gBejv3GAogL9kbs-225" source="rqGh7gBejv3GAogL9kbs-231" target="rqGh7gBejv3GAogL9kbs-228" edge="1">
                    <mxGeometry relative="1" as="geometry">
                        <mxPoint x="-911" y="-140" as="targetPoint"/>
                        <mxPoint x="-990" y="-140" as="sourcePoint"/>
                    </mxGeometry>
                </mxCell>
                <mxCell id="rqGh7gBejv3GAogL9kbs-215" value="" style="group" parent="rqGh7gBejv3GAogL9kbs-225" connectable="0" vertex="1">
                    <mxGeometry x="390" y="-1060" width="289" height="110" as="geometry"/>
                </mxCell>
                <mxCell id="rqGh7gBejv3GAogL9kbs-216" value="&lt;font style=&quot;font-size: 16px;&quot;&gt;&lt;b&gt;ACTIVIDAD&lt;/b&gt;&lt;/font&gt;" style="rounded=0;whiteSpace=wrap;html=1;fillColor=#1B213D;strokeColor=none;fontColor=#ffffff;aspect=fixed;" parent="rqGh7gBejv3GAogL9kbs-215" vertex="1">
                    <mxGeometry x="149" y="20" width="140" height="70" as="geometry"/>
                </mxCell>
                <mxCell id="75" value="TIENE" style="rhombus;whiteSpace=wrap;html=1;" vertex="1" parent="rqGh7gBejv3GAogL9kbs-215">
                    <mxGeometry x="30" y="-10" width="80" height="80" as="geometry"/>
                </mxCell>
                <mxCell id="0Y5nADWUnqRcL9e2HvBY-295" style="edgeStyle=none;html=1;entryX=0;entryY=0.5;entryDx=0;entryDy=0;startArrow=classic;startFill=1;endArrow=none;endFill=0;exitX=1;exitY=0.5;exitDx=0;exitDy=0;" parent="rqGh7gBejv3GAogL9kbs-215" source="75" target="rqGh7gBejv3GAogL9kbs-216" edge="1">
                    <mxGeometry relative="1" as="geometry">
                        <mxPoint x="80" y="50" as="sourcePoint"/>
                    </mxGeometry>
                </mxCell>
                <mxCell id="rqGh7gBejv3GAogL9kbs-152" value="codigo_postal" style="ellipse;whiteSpace=wrap;html=1;fillColor=#30519F;strokeColor=none;gradientColor=none;strokeWidth=2;" parent="1" vertex="1">
                    <mxGeometry x="1100" y="450" width="100" height="40" as="geometry"/>
                </mxCell>
                <mxCell id="rqGh7gBejv3GAogL9kbs-162" style="shape=connector;rounded=1;html=1;entryX=0;entryY=0.5;entryDx=0;entryDy=0;labelBackgroundColor=default;strokeColor=default;fontFamily=Helvetica;fontSize=11;fontColor=default;endArrow=none;endFill=0;exitX=1;exitY=0.75;exitDx=0;exitDy=0;" parent="1" source="rqGh7gBejv3GAogL9kbs-154" target="rqGh7gBejv3GAogL9kbs-152" edge="1">
                    <mxGeometry relative="1" as="geometry">
                        <mxPoint x="1040" y="370" as="sourcePoint"/>
                        <mxPoint x="1119" y="420" as="targetPoint"/>
                    </mxGeometry>
                </mxCell>
                <mxCell id="rqGh7gBejv3GAogL9kbs-294" value="" style="group" parent="1" connectable="0" vertex="1">
                    <mxGeometry x="740" y="802.5" width="470" height="245" as="geometry"/>
                </mxCell>
                <mxCell id="rqGh7gBejv3GAogL9kbs-295" value="" style="group" parent="rqGh7gBejv3GAogL9kbs-294" connectable="0" vertex="1">
                    <mxGeometry x="360" width="110" height="220" as="geometry"/>
                </mxCell>
                <mxCell id="rqGh7gBejv3GAogL9kbs-296" value="info_adicional" style="ellipse;whiteSpace=wrap;html=1;fillColor=#30519F;strokeColor=none;gradientColor=none;strokeWidth=2;" parent="rqGh7gBejv3GAogL9kbs-295" vertex="1">
                    <mxGeometry y="140" width="100" height="40" as="geometry"/>
                </mxCell>
                <mxCell id="rqGh7gBejv3GAogL9kbs-297" value="talla_camiseta" style="ellipse;whiteSpace=wrap;html=1;fillColor=#30519F;strokeColor=none;gradientColor=none;strokeWidth=2;" parent="rqGh7gBejv3GAogL9kbs-295" vertex="1">
                    <mxGeometry width="100" height="40" as="geometry"/>
                </mxCell>
                <mxCell id="rqGh7gBejv3GAogL9kbs-298" value="alergia_intolerancia" style="ellipse;whiteSpace=wrap;html=1;fillColor=#30519F;strokeColor=none;gradientColor=none;strokeWidth=2;" parent="rqGh7gBejv3GAogL9kbs-295" vertex="1">
                    <mxGeometry y="70" width="100" height="40" as="geometry"/>
                </mxCell>
                <mxCell id="rqGh7gBejv3GAogL9kbs-313" value="conocido" style="ellipse;whiteSpace=wrap;html=1;fillColor=#30519F;strokeColor=none;gradientColor=none;strokeWidth=2;" parent="rqGh7gBejv3GAogL9kbs-295" vertex="1">
                    <mxGeometry x="5" y="190" width="100" height="40" as="geometry"/>
                </mxCell>
                <mxCell id="rqGh7gBejv3GAogL9kbs-299" value="" style="group" parent="rqGh7gBejv3GAogL9kbs-294" connectable="0" vertex="1">
                    <mxGeometry y="75" width="289" height="110" as="geometry"/>
                </mxCell>
                <mxCell id="rqGh7gBejv3GAogL9kbs-300" value="&lt;span style=&quot;font-size: 16px;&quot;&gt;&lt;b&gt;NIÑO&lt;/b&gt;&lt;/span&gt;" style="rounded=0;whiteSpace=wrap;html=1;fillColor=#1B213D;strokeColor=none;fontColor=#ffffff;aspect=fixed;" parent="rqGh7gBejv3GAogL9kbs-299" vertex="1">
                    <mxGeometry x="149" y="20" width="140" height="70" as="geometry"/>
                </mxCell>
                <mxCell id="rqGh7gBejv3GAogL9kbs-301" value="" style="endArrow=none;html=1;exitX=1;exitY=0.5;exitDx=0;exitDy=0;entryX=0;entryY=0.25;entryDx=0;entryDy=0;" parent="rqGh7gBejv3GAogL9kbs-299" source="rqGh7gBejv3GAogL9kbs-304" target="rqGh7gBejv3GAogL9kbs-300" edge="1">
                    <mxGeometry width="50" height="50" relative="1" as="geometry">
                        <mxPoint x="189" y="168" as="sourcePoint"/>
                        <mxPoint x="139" y="78" as="targetPoint"/>
                    </mxGeometry>
                </mxCell>
                <mxCell id="rqGh7gBejv3GAogL9kbs-302" value="" style="group" parent="rqGh7gBejv3GAogL9kbs-299" connectable="0" vertex="1">
                    <mxGeometry width="100" height="110" as="geometry"/>
                </mxCell>
                <mxCell id="rqGh7gBejv3GAogL9kbs-304" value="nombre" style="ellipse;whiteSpace=wrap;html=1;fillColor=#30519F;strokeColor=none;gradientColor=none;strokeWidth=2;" parent="rqGh7gBejv3GAogL9kbs-302" vertex="1">
                    <mxGeometry x="-10" y="35" width="100" height="40" as="geometry"/>
                </mxCell>
                <mxCell id="rqGh7gBejv3GAogL9kbs-306" style="html=1;endArrow=none;endFill=0;entryX=1;entryY=1;entryDx=0;entryDy=0;exitX=0;exitY=0;exitDx=0;exitDy=0;" parent="rqGh7gBejv3GAogL9kbs-294" source="rqGh7gBejv3GAogL9kbs-300" target="rqGh7gBejv3GAogL9kbs-308" edge="1">
                    <mxGeometry relative="1" as="geometry">
                        <mxPoint x="379" y="60" as="targetPoint"/>
                        <mxPoint x="300" y="110" as="sourcePoint"/>
                    </mxGeometry>
                </mxCell>
                <mxCell id="rqGh7gBejv3GAogL9kbs-307" style="html=1;endArrow=none;endFill=0;entryX=0;entryY=0.5;entryDx=0;entryDy=0;exitX=1;exitY=0.5;exitDx=0;exitDy=0;" parent="rqGh7gBejv3GAogL9kbs-294" source="rqGh7gBejv3GAogL9kbs-300" target="rqGh7gBejv3GAogL9kbs-296" edge="1">
                    <mxGeometry relative="1" as="geometry">
                        <mxPoint x="379" y="120" as="targetPoint"/>
                        <mxPoint x="300" y="120" as="sourcePoint"/>
                    </mxGeometry>
                </mxCell>
                <mxCell id="rqGh7gBejv3GAogL9kbs-308" value="&lt;b&gt;&lt;u&gt;id&lt;/u&gt;&lt;/b&gt;" style="ellipse;whiteSpace=wrap;html=1;fillColor=#30519F;strokeColor=none;gradientColor=none;strokeWidth=2;" parent="rqGh7gBejv3GAogL9kbs-294" vertex="1">
                    <mxGeometry y="15" width="100" height="40" as="geometry"/>
                </mxCell>
                <mxCell id="rqGh7gBejv3GAogL9kbs-309" value="" style="endArrow=none;html=1;entryX=0;entryY=1;entryDx=0;entryDy=0;exitX=1;exitY=0;exitDx=0;exitDy=0;" parent="rqGh7gBejv3GAogL9kbs-294" source="rqGh7gBejv3GAogL9kbs-300" target="rqGh7gBejv3GAogL9kbs-297" edge="1">
                    <mxGeometry width="50" height="50" relative="1" as="geometry">
                        <mxPoint x="150" y="260" as="sourcePoint"/>
                        <mxPoint x="200" y="210" as="targetPoint"/>
                    </mxGeometry>
                </mxCell>
                <mxCell id="rqGh7gBejv3GAogL9kbs-310" value="" style="endArrow=none;html=1;entryX=0;entryY=0.5;entryDx=0;entryDy=0;exitX=1;exitY=0.25;exitDx=0;exitDy=0;" parent="rqGh7gBejv3GAogL9kbs-294" source="rqGh7gBejv3GAogL9kbs-300" target="rqGh7gBejv3GAogL9kbs-298" edge="1">
                    <mxGeometry width="50" height="50" relative="1" as="geometry">
                        <mxPoint x="150" y="260" as="sourcePoint"/>
                        <mxPoint x="200" y="210" as="targetPoint"/>
                    </mxGeometry>
                </mxCell>
                <mxCell id="0Y5nADWUnqRcL9e2HvBY-246" value="INSCRIBE" style="rhombus;whiteSpace=wrap;html=1;" parent="rqGh7gBejv3GAogL9kbs-294" vertex="1">
                    <mxGeometry x="179" y="-25" width="80" height="80" as="geometry"/>
                </mxCell>
                <mxCell id="0Y5nADWUnqRcL9e2HvBY-248" value="" style="endArrow=classic;html=1;exitX=0.5;exitY=0;exitDx=0;exitDy=0;entryX=0.5;entryY=1;entryDx=0;entryDy=0;" parent="rqGh7gBejv3GAogL9kbs-294" source="rqGh7gBejv3GAogL9kbs-300" target="0Y5nADWUnqRcL9e2HvBY-246" edge="1">
                    <mxGeometry width="50" height="50" relative="1" as="geometry">
                        <mxPoint x="209" y="95" as="sourcePoint"/>
                        <mxPoint x="-130" y="65" as="targetPoint"/>
                    </mxGeometry>
                </mxCell>
                <mxCell id="rqGh7gBejv3GAogL9kbs-400" value="1:1" style="text;html=1;align=center;verticalAlign=middle;resizable=0;points=[];autosize=1;strokeColor=none;fillColor=none;" parent="rqGh7gBejv3GAogL9kbs-294" vertex="1">
                    <mxGeometry x="130" width="40" height="30" as="geometry"/>
                </mxCell>
                <mxCell id="rqGh7gBejv3GAogL9kbs-303" value="apellidos" style="ellipse;whiteSpace=wrap;html=1;fillColor=#30519F;strokeColor=none;gradientColor=none;strokeWidth=2;" parent="rqGh7gBejv3GAogL9kbs-294" vertex="1">
                    <mxGeometry x="-10" y="165" width="100" height="40" as="geometry"/>
                </mxCell>
                <mxCell id="rqGh7gBejv3GAogL9kbs-305" style="edgeStyle=none;shape=connector;curved=1;rounded=1;html=1;entryX=1;entryY=0.5;entryDx=0;entryDy=0;labelBackgroundColor=default;strokeColor=default;fontFamily=Helvetica;fontSize=11;fontColor=default;endArrow=none;endFill=0;exitX=0;exitY=0.75;exitDx=0;exitDy=0;" parent="rqGh7gBejv3GAogL9kbs-294" source="rqGh7gBejv3GAogL9kbs-300" target="rqGh7gBejv3GAogL9kbs-303" edge="1">
                    <mxGeometry relative="1" as="geometry"/>
                </mxCell>
                <mxCell id="rqGh7gBejv3GAogL9kbs-311" value="fecha_nacimiento" style="ellipse;whiteSpace=wrap;html=1;fillColor=#30519F;strokeColor=none;gradientColor=none;strokeWidth=2;" parent="rqGh7gBejv3GAogL9kbs-294" vertex="1">
                    <mxGeometry x="90" y="205" width="100" height="40" as="geometry"/>
                </mxCell>
                <mxCell id="rqGh7gBejv3GAogL9kbs-312" value="" style="endArrow=none;html=1;exitX=0.5;exitY=0;exitDx=0;exitDy=0;entryX=0.25;entryY=1;entryDx=0;entryDy=0;" parent="rqGh7gBejv3GAogL9kbs-294" source="rqGh7gBejv3GAogL9kbs-311" target="rqGh7gBejv3GAogL9kbs-300" edge="1">
                    <mxGeometry width="50" height="50" relative="1" as="geometry">
                        <mxPoint x="150" y="180" as="sourcePoint"/>
                        <mxPoint x="200" y="130" as="targetPoint"/>
                    </mxGeometry>
                </mxCell>
                <mxCell id="rqGh7gBejv3GAogL9kbs-314" style="shape=connector;rounded=1;html=1;entryX=0;entryY=0.5;entryDx=0;entryDy=0;labelBackgroundColor=default;strokeColor=default;fontFamily=Helvetica;fontSize=11;fontColor=default;endArrow=none;endFill=0;exitX=1;exitY=0.75;exitDx=0;exitDy=0;" parent="rqGh7gBejv3GAogL9kbs-294" source="rqGh7gBejv3GAogL9kbs-300" target="rqGh7gBejv3GAogL9kbs-313" edge="1">
                    <mxGeometry relative="1" as="geometry">
                        <mxPoint x="300" y="50" as="sourcePoint"/>
                        <mxPoint x="379" y="100" as="targetPoint"/>
                    </mxGeometry>
                </mxCell>
                <mxCell id="rqGh7gBejv3GAogL9kbs-315" value="" style="group" parent="1" connectable="0" vertex="1">
                    <mxGeometry x="2210" y="420" width="460" height="220" as="geometry"/>
                </mxCell>
                <mxCell id="rqGh7gBejv3GAogL9kbs-316" value="" style="group" parent="rqGh7gBejv3GAogL9kbs-315" connectable="0" vertex="1">
                    <mxGeometry x="360" width="100" height="220" as="geometry"/>
                </mxCell>
                <mxCell id="rqGh7gBejv3GAogL9kbs-317" value="telf2" style="ellipse;whiteSpace=wrap;html=1;fillColor=#30519F;strokeColor=none;gradientColor=none;strokeWidth=2;" parent="rqGh7gBejv3GAogL9kbs-316" vertex="1">
                    <mxGeometry x="-50" y="165" width="100" height="40" as="geometry"/>
                </mxCell>
                <mxCell id="74" value="REALIZA" style="rhombus;whiteSpace=wrap;html=1;" vertex="1" parent="rqGh7gBejv3GAogL9kbs-316">
                    <mxGeometry x="-30" y="70" width="80" height="80" as="geometry"/>
                </mxCell>
                <mxCell id="rqGh7gBejv3GAogL9kbs-320" value="" style="group" parent="rqGh7gBejv3GAogL9kbs-315" connectable="0" vertex="1">
                    <mxGeometry y="75" width="289" height="110" as="geometry"/>
                </mxCell>
                <mxCell id="rqGh7gBejv3GAogL9kbs-321" value="&lt;span style=&quot;font-size: 16px;&quot;&gt;&lt;b&gt;MONITOR&lt;/b&gt;&lt;/span&gt;" style="rounded=0;whiteSpace=wrap;html=1;fillColor=#1B213D;strokeColor=none;fontColor=#ffffff;aspect=fixed;" parent="rqGh7gBejv3GAogL9kbs-320" vertex="1">
                    <mxGeometry x="149" y="20" width="140" height="70" as="geometry"/>
                </mxCell>
                <mxCell id="rqGh7gBejv3GAogL9kbs-322" value="" style="endArrow=none;html=1;exitX=1;exitY=0.5;exitDx=0;exitDy=0;entryX=0;entryY=0.25;entryDx=0;entryDy=0;" parent="rqGh7gBejv3GAogL9kbs-320" source="rqGh7gBejv3GAogL9kbs-325" target="rqGh7gBejv3GAogL9kbs-321" edge="1">
                    <mxGeometry width="50" height="50" relative="1" as="geometry">
                        <mxPoint x="189" y="168" as="sourcePoint"/>
                        <mxPoint x="139" y="78" as="targetPoint"/>
                    </mxGeometry>
                </mxCell>
                <mxCell id="rqGh7gBejv3GAogL9kbs-323" value="" style="group" parent="rqGh7gBejv3GAogL9kbs-320" connectable="0" vertex="1">
                    <mxGeometry width="100" height="110" as="geometry"/>
                </mxCell>
                <mxCell id="rqGh7gBejv3GAogL9kbs-324" value="apellidos" style="ellipse;whiteSpace=wrap;html=1;fillColor=#30519F;strokeColor=none;gradientColor=none;strokeWidth=2;" parent="rqGh7gBejv3GAogL9kbs-323" vertex="1">
                    <mxGeometry y="85" width="100" height="40" as="geometry"/>
                </mxCell>
                <mxCell id="rqGh7gBejv3GAogL9kbs-325" value="nombre" style="ellipse;whiteSpace=wrap;html=1;fillColor=#30519F;strokeColor=none;gradientColor=none;strokeWidth=2;" parent="rqGh7gBejv3GAogL9kbs-323" vertex="1">
                    <mxGeometry width="100" height="40" as="geometry"/>
                </mxCell>
                <mxCell id="rqGh7gBejv3GAogL9kbs-326" style="edgeStyle=none;shape=connector;curved=1;rounded=1;html=1;entryX=1;entryY=0.5;entryDx=0;entryDy=0;labelBackgroundColor=default;strokeColor=default;fontFamily=Helvetica;fontSize=11;fontColor=default;endArrow=none;endFill=0;exitX=0;exitY=0.75;exitDx=0;exitDy=0;" parent="rqGh7gBejv3GAogL9kbs-320" source="rqGh7gBejv3GAogL9kbs-321" target="rqGh7gBejv3GAogL9kbs-324" edge="1">
                    <mxGeometry relative="1" as="geometry"/>
                </mxCell>
                <mxCell id="rqGh7gBejv3GAogL9kbs-327" style="html=1;endArrow=none;endFill=0;entryX=1;entryY=1;entryDx=0;entryDy=0;exitX=0;exitY=0;exitDx=0;exitDy=0;" parent="rqGh7gBejv3GAogL9kbs-315" source="rqGh7gBejv3GAogL9kbs-321" target="rqGh7gBejv3GAogL9kbs-329" edge="1">
                    <mxGeometry relative="1" as="geometry">
                        <mxPoint x="379" y="60" as="targetPoint"/>
                        <mxPoint x="300" y="110" as="sourcePoint"/>
                    </mxGeometry>
                </mxCell>
                <mxCell id="rqGh7gBejv3GAogL9kbs-328" style="html=1;endArrow=none;endFill=0;entryX=0;entryY=0.5;entryDx=0;entryDy=0;exitX=1;exitY=0.5;exitDx=0;exitDy=0;" parent="rqGh7gBejv3GAogL9kbs-315" source="rqGh7gBejv3GAogL9kbs-321" target="rqGh7gBejv3GAogL9kbs-317" edge="1">
                    <mxGeometry relative="1" as="geometry">
                        <mxPoint x="379" y="120" as="targetPoint"/>
                        <mxPoint x="300" y="120" as="sourcePoint"/>
                    </mxGeometry>
                </mxCell>
                <mxCell id="rqGh7gBejv3GAogL9kbs-329" value="&lt;b&gt;&lt;u&gt;id&lt;/u&gt;&lt;/b&gt;" style="ellipse;whiteSpace=wrap;html=1;fillColor=#30519F;strokeColor=none;gradientColor=none;strokeWidth=2;" parent="rqGh7gBejv3GAogL9kbs-315" vertex="1">
                    <mxGeometry y="10" width="100" height="40" as="geometry"/>
                </mxCell>
                <mxCell id="82" value="" style="edgeStyle=none;html=1;" edge="1" parent="rqGh7gBejv3GAogL9kbs-315" source="rqGh7gBejv3GAogL9kbs-321" target="74">
                    <mxGeometry relative="1" as="geometry"/>
                </mxCell>
                <mxCell id="rqGh7gBejv3GAogL9kbs-411" value="n:m" style="text;html=1;align=center;verticalAlign=middle;resizable=0;points=[];autosize=1;strokeColor=none;fillColor=none;" parent="rqGh7gBejv3GAogL9kbs-315" vertex="1">
                    <mxGeometry x="350" y="40" width="40" height="30" as="geometry"/>
                </mxCell>
                <mxCell id="rqGh7gBejv3GAogL9kbs-332" value="email" style="ellipse;whiteSpace=wrap;html=1;fillColor=#30519F;strokeColor=none;gradientColor=none;strokeWidth=2;" parent="1" vertex="1">
                    <mxGeometry x="2210" y="630" width="100" height="40" as="geometry"/>
                </mxCell>
                <mxCell id="rqGh7gBejv3GAogL9kbs-333" value="" style="endArrow=none;html=1;exitX=1;exitY=0;exitDx=0;exitDy=0;entryX=0;entryY=1;entryDx=0;entryDy=0;" parent="1" source="rqGh7gBejv3GAogL9kbs-332" target="rqGh7gBejv3GAogL9kbs-321" edge="1">
                    <mxGeometry width="50" height="50" relative="1" as="geometry">
                        <mxPoint x="2360" y="680" as="sourcePoint"/>
                        <mxPoint x="2410" y="630" as="targetPoint"/>
                    </mxGeometry>
                </mxCell>
                <mxCell id="rqGh7gBejv3GAogL9kbs-336" value="" style="group" parent="1" connectable="0" vertex="1">
                    <mxGeometry x="1490" y="780" width="460" height="220" as="geometry"/>
                </mxCell>
                <mxCell id="rqGh7gBejv3GAogL9kbs-337" value="" style="group" parent="rqGh7gBejv3GAogL9kbs-336" connectable="0" vertex="1">
                    <mxGeometry x="360" width="100" height="220" as="geometry"/>
                </mxCell>
                <mxCell id="rqGh7gBejv3GAogL9kbs-338" value="telf2" style="ellipse;whiteSpace=wrap;html=1;fillColor=#30519F;strokeColor=none;gradientColor=none;strokeWidth=2;" parent="rqGh7gBejv3GAogL9kbs-337" vertex="1">
                    <mxGeometry x="10" y="110" width="100" height="40" as="geometry"/>
                </mxCell>
                <mxCell id="rqGh7gBejv3GAogL9kbs-339" value="dni" style="ellipse;whiteSpace=wrap;html=1;fillColor=#30519F;strokeColor=none;gradientColor=none;strokeWidth=2;" parent="rqGh7gBejv3GAogL9kbs-337" vertex="1">
                    <mxGeometry width="100" height="40" as="geometry"/>
                </mxCell>
                <mxCell id="rqGh7gBejv3GAogL9kbs-340" value="telf1" style="ellipse;whiteSpace=wrap;html=1;fillColor=#30519F;strokeColor=none;gradientColor=none;strokeWidth=2;" parent="rqGh7gBejv3GAogL9kbs-337" vertex="1">
                    <mxGeometry y="70" width="100" height="40" as="geometry"/>
                </mxCell>
                <mxCell id="rqGh7gBejv3GAogL9kbs-341" value="" style="group" parent="rqGh7gBejv3GAogL9kbs-336" connectable="0" vertex="1">
                    <mxGeometry y="75" width="289" height="110" as="geometry"/>
                </mxCell>
                <mxCell id="rqGh7gBejv3GAogL9kbs-342" value="&lt;span style=&quot;font-size: 16px;&quot;&gt;&lt;b&gt;ADMINISTRADOR&lt;/b&gt;&lt;/span&gt;" style="rounded=0;whiteSpace=wrap;html=1;fillColor=#1B213D;strokeColor=none;fontColor=#ffffff;aspect=fixed;" parent="rqGh7gBejv3GAogL9kbs-341" vertex="1">
                    <mxGeometry x="149" y="20" width="140" height="70" as="geometry"/>
                </mxCell>
                <mxCell id="rqGh7gBejv3GAogL9kbs-343" value="" style="endArrow=none;html=1;exitX=1;exitY=0.5;exitDx=0;exitDy=0;entryX=0;entryY=0.25;entryDx=0;entryDy=0;" parent="rqGh7gBejv3GAogL9kbs-341" source="rqGh7gBejv3GAogL9kbs-346" target="rqGh7gBejv3GAogL9kbs-342" edge="1">
                    <mxGeometry width="50" height="50" relative="1" as="geometry">
                        <mxPoint x="189" y="168" as="sourcePoint"/>
                        <mxPoint x="139" y="78" as="targetPoint"/>
                    </mxGeometry>
                </mxCell>
                <mxCell id="rqGh7gBejv3GAogL9kbs-344" value="" style="group" parent="rqGh7gBejv3GAogL9kbs-341" connectable="0" vertex="1">
                    <mxGeometry width="100" height="110" as="geometry"/>
                </mxCell>
                <mxCell id="rqGh7gBejv3GAogL9kbs-345" value="apellidos" style="ellipse;whiteSpace=wrap;html=1;fillColor=#30519F;strokeColor=none;gradientColor=none;strokeWidth=2;" parent="rqGh7gBejv3GAogL9kbs-344" vertex="1">
                    <mxGeometry y="70" width="100" height="40" as="geometry"/>
                </mxCell>
                <mxCell id="rqGh7gBejv3GAogL9kbs-346" value="nombre" style="ellipse;whiteSpace=wrap;html=1;fillColor=#30519F;strokeColor=none;gradientColor=none;strokeWidth=2;" parent="rqGh7gBejv3GAogL9kbs-344" vertex="1">
                    <mxGeometry width="100" height="40" as="geometry"/>
                </mxCell>
                <mxCell id="rqGh7gBejv3GAogL9kbs-347" style="edgeStyle=none;shape=connector;curved=1;rounded=1;html=1;entryX=1;entryY=0.5;entryDx=0;entryDy=0;labelBackgroundColor=default;strokeColor=default;fontFamily=Helvetica;fontSize=11;fontColor=default;endArrow=none;endFill=0;exitX=0;exitY=0.75;exitDx=0;exitDy=0;" parent="rqGh7gBejv3GAogL9kbs-341" source="rqGh7gBejv3GAogL9kbs-342" target="rqGh7gBejv3GAogL9kbs-345" edge="1">
                    <mxGeometry relative="1" as="geometry"/>
                </mxCell>
                <mxCell id="rqGh7gBejv3GAogL9kbs-348" style="html=1;endArrow=none;endFill=0;entryX=1;entryY=1;entryDx=0;entryDy=0;exitX=0;exitY=0;exitDx=0;exitDy=0;" parent="rqGh7gBejv3GAogL9kbs-336" source="rqGh7gBejv3GAogL9kbs-342" target="rqGh7gBejv3GAogL9kbs-350" edge="1">
                    <mxGeometry relative="1" as="geometry">
                        <mxPoint x="379" y="60" as="targetPoint"/>
                        <mxPoint x="300" y="110" as="sourcePoint"/>
                    </mxGeometry>
                </mxCell>
                <mxCell id="rqGh7gBejv3GAogL9kbs-349" style="html=1;endArrow=none;endFill=0;entryX=0;entryY=0.5;entryDx=0;entryDy=0;exitX=1;exitY=0.5;exitDx=0;exitDy=0;" parent="rqGh7gBejv3GAogL9kbs-336" source="rqGh7gBejv3GAogL9kbs-342" target="rqGh7gBejv3GAogL9kbs-338" edge="1">
                    <mxGeometry relative="1" as="geometry">
                        <mxPoint x="379" y="120" as="targetPoint"/>
                        <mxPoint x="300" y="120" as="sourcePoint"/>
                    </mxGeometry>
                </mxCell>
                <mxCell id="rqGh7gBejv3GAogL9kbs-350" value="&lt;b&gt;&lt;u&gt;id&lt;/u&gt;&lt;/b&gt;" style="ellipse;whiteSpace=wrap;html=1;fillColor=#30519F;strokeColor=none;gradientColor=none;strokeWidth=2;" parent="rqGh7gBejv3GAogL9kbs-336" vertex="1">
                    <mxGeometry width="100" height="40" as="geometry"/>
                </mxCell>
                <mxCell id="rqGh7gBejv3GAogL9kbs-351" value="" style="endArrow=none;html=1;entryX=0;entryY=1;entryDx=0;entryDy=0;exitX=1;exitY=0;exitDx=0;exitDy=0;" parent="rqGh7gBejv3GAogL9kbs-336" source="rqGh7gBejv3GAogL9kbs-342" target="rqGh7gBejv3GAogL9kbs-339" edge="1">
                    <mxGeometry width="50" height="50" relative="1" as="geometry">
                        <mxPoint x="150" y="260" as="sourcePoint"/>
                        <mxPoint x="200" y="210" as="targetPoint"/>
                    </mxGeometry>
                </mxCell>
                <mxCell id="rqGh7gBejv3GAogL9kbs-352" value="" style="endArrow=none;html=1;entryX=0;entryY=0.5;entryDx=0;entryDy=0;exitX=1;exitY=0.25;exitDx=0;exitDy=0;" parent="rqGh7gBejv3GAogL9kbs-336" source="rqGh7gBejv3GAogL9kbs-342" target="rqGh7gBejv3GAogL9kbs-340" edge="1">
                    <mxGeometry width="50" height="50" relative="1" as="geometry">
                        <mxPoint x="150" y="260" as="sourcePoint"/>
                        <mxPoint x="200" y="210" as="targetPoint"/>
                    </mxGeometry>
                </mxCell>
                <mxCell id="rqGh7gBejv3GAogL9kbs-353" value="email" style="ellipse;whiteSpace=wrap;html=1;fillColor=#30519F;strokeColor=none;gradientColor=none;strokeWidth=2;" parent="1" vertex="1">
                    <mxGeometry x="1490" y="980" width="100" height="40" as="geometry"/>
                </mxCell>
                <mxCell id="rqGh7gBejv3GAogL9kbs-354" value="" style="endArrow=none;html=1;exitX=1;exitY=0;exitDx=0;exitDy=0;entryX=0;entryY=1;entryDx=0;entryDy=0;" parent="1" source="rqGh7gBejv3GAogL9kbs-353" target="rqGh7gBejv3GAogL9kbs-342" edge="1">
                    <mxGeometry width="50" height="50" relative="1" as="geometry">
                        <mxPoint x="1620" y="1000" as="sourcePoint"/>
                        <mxPoint x="1670" y="950" as="targetPoint"/>
                    </mxGeometry>
                </mxCell>
                <mxCell id="rqGh7gBejv3GAogL9kbs-134" value="" style="group" parent="1" connectable="0" vertex="1">
                    <mxGeometry x="2480" y="1060" width="250" height="220" as="geometry"/>
                </mxCell>
                <mxCell id="rqGh7gBejv3GAogL9kbs-164" value="" style="group" parent="rqGh7gBejv3GAogL9kbs-134" connectable="0" vertex="1">
                    <mxGeometry x="-210" y="-19" width="460" height="220" as="geometry"/>
                </mxCell>
                <mxCell id="rqGh7gBejv3GAogL9kbs-165" value="" style="group" parent="rqGh7gBejv3GAogL9kbs-164" connectable="0" vertex="1">
                    <mxGeometry x="360" width="100" height="220" as="geometry"/>
                </mxCell>
                <mxCell id="rqGh7gBejv3GAogL9kbs-167" value="precio" style="ellipse;whiteSpace=wrap;html=1;fillColor=#30519F;strokeColor=none;gradientColor=none;strokeWidth=2;" parent="rqGh7gBejv3GAogL9kbs-165" vertex="1">
                    <mxGeometry x="-2220" y="164" width="100" height="40" as="geometry"/>
                </mxCell>
                <mxCell id="rqGh7gBejv3GAogL9kbs-169" value="" style="group" parent="rqGh7gBejv3GAogL9kbs-164" connectable="0" vertex="1">
                    <mxGeometry x="-2220" y="119" width="289" height="110" as="geometry"/>
                </mxCell>
                <mxCell id="rqGh7gBejv3GAogL9kbs-170" value="&lt;font style=&quot;font-size: 16px;&quot;&gt;&lt;b&gt;TARIFA&lt;/b&gt;&lt;/font&gt;" style="rounded=0;whiteSpace=wrap;html=1;fillColor=#1B213D;strokeColor=none;fontColor=#ffffff;aspect=fixed;" parent="rqGh7gBejv3GAogL9kbs-169" vertex="1">
                    <mxGeometry x="149" y="20" width="140" height="70" as="geometry"/>
                </mxCell>
                <mxCell id="rqGh7gBejv3GAogL9kbs-171" value="" style="endArrow=none;html=1;exitX=1;exitY=0.5;exitDx=0;exitDy=0;entryX=0;entryY=0.25;entryDx=0;entryDy=0;" parent="rqGh7gBejv3GAogL9kbs-169" source="rqGh7gBejv3GAogL9kbs-174" target="rqGh7gBejv3GAogL9kbs-170" edge="1">
                    <mxGeometry width="50" height="50" relative="1" as="geometry">
                        <mxPoint x="189" y="168" as="sourcePoint"/>
                        <mxPoint x="139" y="78" as="targetPoint"/>
                    </mxGeometry>
                </mxCell>
                <mxCell id="rqGh7gBejv3GAogL9kbs-172" value="" style="group" parent="rqGh7gBejv3GAogL9kbs-169" connectable="0" vertex="1">
                    <mxGeometry width="100" height="110" as="geometry"/>
                </mxCell>
                <mxCell id="rqGh7gBejv3GAogL9kbs-173" value="nombre" style="ellipse;whiteSpace=wrap;html=1;fillColor=#30519F;strokeColor=none;gradientColor=none;strokeWidth=2;" parent="rqGh7gBejv3GAogL9kbs-172" vertex="1">
                    <mxGeometry y="70" width="100" height="40" as="geometry"/>
                </mxCell>
                <mxCell id="rqGh7gBejv3GAogL9kbs-174" value="&lt;u&gt;&lt;b&gt;id&lt;/b&gt;&lt;/u&gt;" style="ellipse;whiteSpace=wrap;html=1;fillColor=#30519F;strokeColor=none;gradientColor=none;strokeWidth=2;" parent="rqGh7gBejv3GAogL9kbs-172" vertex="1">
                    <mxGeometry width="100" height="40" as="geometry"/>
                </mxCell>
                <mxCell id="rqGh7gBejv3GAogL9kbs-175" style="edgeStyle=none;shape=connector;curved=1;rounded=1;html=1;entryX=1;entryY=0.5;entryDx=0;entryDy=0;labelBackgroundColor=default;strokeColor=default;fontFamily=Helvetica;fontSize=11;fontColor=default;endArrow=none;endFill=0;exitX=0;exitY=0.75;exitDx=0;exitDy=0;" parent="rqGh7gBejv3GAogL9kbs-169" source="rqGh7gBejv3GAogL9kbs-170" target="rqGh7gBejv3GAogL9kbs-173" edge="1">
                    <mxGeometry relative="1" as="geometry"/>
                </mxCell>
                <mxCell id="rqGh7gBejv3GAogL9kbs-177" style="html=1;endArrow=none;endFill=0;entryX=0;entryY=0.5;entryDx=0;entryDy=0;" parent="rqGh7gBejv3GAogL9kbs-164" target="rqGh7gBejv3GAogL9kbs-167" edge="1">
                    <mxGeometry relative="1" as="geometry">
                        <mxPoint x="-1841" y="164" as="targetPoint"/>
                        <mxPoint x="-1930" y="184" as="sourcePoint"/>
                    </mxGeometry>
                </mxCell>
                <mxCell id="rqGh7gBejv3GAogL9kbs-361" style="shape=connector;rounded=1;html=1;labelBackgroundColor=default;strokeColor=default;fontFamily=Helvetica;fontSize=11;fontColor=default;endArrow=none;endFill=0;entryX=0.5;entryY=0;entryDx=0;entryDy=0;exitX=0.5;exitY=1;exitDx=0;exitDy=0;startArrow=classic;startFill=1;" parent="1" source="0Y5nADWUnqRcL9e2HvBY-249" target="rqGh7gBejv3GAogL9kbs-170" edge="1">
                    <mxGeometry relative="1" as="geometry">
                        <mxPoint x="210" y="1110" as="sourcePoint"/>
                        <mxPoint x="760" y="1305" as="targetPoint"/>
                    </mxGeometry>
                </mxCell>
                <mxCell id="rqGh7gBejv3GAogL9kbs-369" value="INSCRIBE" style="rhombus;whiteSpace=wrap;html=1;" parent="1" vertex="1">
                    <mxGeometry x="920" y="450" width="80" height="80" as="geometry"/>
                </mxCell>
                <mxCell id="rqGh7gBejv3GAogL9kbs-370" value="" style="endArrow=classic;html=1;entryX=0.5;entryY=0;entryDx=0;entryDy=0;exitX=0.5;exitY=1;exitDx=0;exitDy=0;" parent="1" source="rqGh7gBejv3GAogL9kbs-154" target="rqGh7gBejv3GAogL9kbs-369" edge="1">
                    <mxGeometry width="50" height="50" relative="1" as="geometry">
                        <mxPoint x="960" y="410" as="sourcePoint"/>
                        <mxPoint x="1050" y="660" as="targetPoint"/>
                    </mxGeometry>
                </mxCell>
                <mxCell id="rqGh7gBejv3GAogL9kbs-371" value="" style="endArrow=classic;html=1;exitX=0.5;exitY=0;exitDx=0;exitDy=0;" parent="1" source="0Y5nADWUnqRcL9e2HvBY-93" target="rqGh7gBejv3GAogL9kbs-369" edge="1">
                    <mxGeometry width="50" height="50" relative="1" as="geometry">
                        <mxPoint x="970" y="420" as="sourcePoint"/>
                        <mxPoint x="620" y="540" as="targetPoint"/>
                    </mxGeometry>
                </mxCell>
                <mxCell id="rqGh7gBejv3GAogL9kbs-372" value="PERTENECE A" style="rhombus;whiteSpace=wrap;html=1;" parent="1" vertex="1">
                    <mxGeometry x="920" y="1080" width="80" height="80" as="geometry"/>
                </mxCell>
                <mxCell id="rqGh7gBejv3GAogL9kbs-373" value="" style="endArrow=classic;html=1;entryX=0.5;entryY=0;entryDx=0;entryDy=0;exitX=0.5;exitY=1;exitDx=0;exitDy=0;" parent="1" source="rqGh7gBejv3GAogL9kbs-300" target="rqGh7gBejv3GAogL9kbs-372" edge="1">
                    <mxGeometry width="50" height="50" relative="1" as="geometry">
                        <mxPoint x="1020" y="710" as="sourcePoint"/>
                        <mxPoint x="979" y="825" as="targetPoint"/>
                    </mxGeometry>
                </mxCell>
                <mxCell id="rqGh7gBejv3GAogL9kbs-374" value="" style="endArrow=classic;html=1;exitX=0.5;exitY=1;exitDx=0;exitDy=0;" parent="1" source="rqGh7gBejv3GAogL9kbs-372" target="rqGh7gBejv3GAogL9kbs-231" edge="1">
                    <mxGeometry width="50" height="50" relative="1" as="geometry">
                        <mxPoint x="979" y="894.9999999999998" as="sourcePoint"/>
                        <mxPoint x="970" y="1090" as="targetPoint"/>
                    </mxGeometry>
                </mxCell>
                <mxCell id="rqGh7gBejv3GAogL9kbs-375" value="GESTIONA" style="rhombus;whiteSpace=wrap;html=1;" parent="1" vertex="1">
                    <mxGeometry x="1480" y="1135" width="80" height="80" as="geometry"/>
                </mxCell>
                <mxCell id="rqGh7gBejv3GAogL9kbs-376" value="" style="endArrow=classic;html=1;" parent="1" source="rqGh7gBejv3GAogL9kbs-375" edge="1">
                    <mxGeometry width="50" height="50" relative="1" as="geometry">
                        <mxPoint x="970" y="1170" as="sourcePoint"/>
                        <mxPoint x="1360" y="1380" as="targetPoint"/>
                    </mxGeometry>
                </mxCell>
                <mxCell id="rqGh7gBejv3GAogL9kbs-377" value="" style="endArrow=classic;html=1;exitX=0.5;exitY=1;exitDx=0;exitDy=0;entryX=1;entryY=0;entryDx=0;entryDy=0;" parent="1" source="rqGh7gBejv3GAogL9kbs-342" target="rqGh7gBejv3GAogL9kbs-375" edge="1">
                    <mxGeometry width="50" height="50" relative="1" as="geometry">
                        <mxPoint x="1353.0612244897957" y="1153.0612244897957" as="sourcePoint"/>
                        <mxPoint x="1050" y="1300" as="targetPoint"/>
                    </mxGeometry>
                </mxCell>
                <mxCell id="rqGh7gBejv3GAogL9kbs-211" value="" style="group" parent="1" connectable="0" vertex="1">
                    <mxGeometry x="1740" y="340" width="240" height="220" as="geometry"/>
                </mxCell>
                <mxCell id="rqGh7gBejv3GAogL9kbs-255" value="" style="group" parent="rqGh7gBejv3GAogL9kbs-211" connectable="0" vertex="1">
                    <mxGeometry x="-220" y="-80" width="460" height="220" as="geometry"/>
                </mxCell>
                <mxCell id="rqGh7gBejv3GAogL9kbs-256" value="" style="group" parent="rqGh7gBejv3GAogL9kbs-255" connectable="0" vertex="1">
                    <mxGeometry x="360" width="100" height="220" as="geometry"/>
                </mxCell>
                <mxCell id="rqGh7gBejv3GAogL9kbs-257" value="&lt;b&gt;&lt;u&gt;administrador_id*&lt;/u&gt;&lt;/b&gt;" style="ellipse;whiteSpace=wrap;html=1;fillColor=#30519F;strokeColor=none;gradientColor=none;strokeWidth=2;" parent="rqGh7gBejv3GAogL9kbs-256" vertex="1">
                    <mxGeometry y="60" width="100" height="40" as="geometry"/>
                </mxCell>
                <mxCell id="rqGh7gBejv3GAogL9kbs-258" value="titulo" style="ellipse;whiteSpace=wrap;html=1;fillColor=#30519F;strokeColor=none;gradientColor=none;strokeWidth=2;" parent="rqGh7gBejv3GAogL9kbs-256" vertex="1">
                    <mxGeometry y="120" width="100" height="40" as="geometry"/>
                </mxCell>
                <mxCell id="rqGh7gBejv3GAogL9kbs-259" value="asunto" style="ellipse;whiteSpace=wrap;html=1;fillColor=#30519F;strokeColor=none;gradientColor=none;strokeWidth=2;" parent="rqGh7gBejv3GAogL9kbs-256" vertex="1">
                    <mxGeometry y="180" width="100" height="40" as="geometry"/>
                </mxCell>
                <mxCell id="rqGh7gBejv3GAogL9kbs-260" value="" style="group" parent="rqGh7gBejv3GAogL9kbs-255" connectable="0" vertex="1">
                    <mxGeometry y="75" width="289" height="110" as="geometry"/>
                </mxCell>
                <mxCell id="rqGh7gBejv3GAogL9kbs-261" value="&lt;font style=&quot;font-size: 16px;&quot;&gt;&lt;b&gt;INCIDENCIA&lt;/b&gt;&lt;/font&gt;" style="rounded=0;whiteSpace=wrap;html=1;fillColor=#1B213D;strokeColor=none;fontColor=#ffffff;aspect=fixed;" parent="rqGh7gBejv3GAogL9kbs-260" vertex="1">
                    <mxGeometry x="149" y="20" width="140" height="70" as="geometry"/>
                </mxCell>
                <mxCell id="rqGh7gBejv3GAogL9kbs-262" value="" style="endArrow=none;html=1;exitX=1;exitY=0.5;exitDx=0;exitDy=0;entryX=0;entryY=0.25;entryDx=0;entryDy=0;" parent="rqGh7gBejv3GAogL9kbs-260" source="rqGh7gBejv3GAogL9kbs-265" target="rqGh7gBejv3GAogL9kbs-261" edge="1">
                    <mxGeometry width="50" height="50" relative="1" as="geometry">
                        <mxPoint x="189" y="168" as="sourcePoint"/>
                        <mxPoint x="139" y="78" as="targetPoint"/>
                    </mxGeometry>
                </mxCell>
                <mxCell id="rqGh7gBejv3GAogL9kbs-263" value="" style="group" parent="rqGh7gBejv3GAogL9kbs-260" connectable="0" vertex="1">
                    <mxGeometry width="100" height="110" as="geometry"/>
                </mxCell>
                <mxCell id="rqGh7gBejv3GAogL9kbs-264" value="&lt;b&gt;&lt;u&gt;padre_id&lt;/u&gt;&lt;/b&gt;*" style="ellipse;whiteSpace=wrap;html=1;fillColor=#30519F;strokeColor=none;gradientColor=none;strokeWidth=2;" parent="rqGh7gBejv3GAogL9kbs-263" vertex="1">
                    <mxGeometry y="70" width="100" height="40" as="geometry"/>
                </mxCell>
                <mxCell id="rqGh7gBejv3GAogL9kbs-265" value="&lt;b&gt;&lt;u&gt;id&lt;/u&gt;&lt;/b&gt;" style="ellipse;whiteSpace=wrap;html=1;fillColor=#30519F;strokeColor=none;gradientColor=none;strokeWidth=2;" parent="rqGh7gBejv3GAogL9kbs-263" vertex="1">
                    <mxGeometry width="100" height="40" as="geometry"/>
                </mxCell>
                <mxCell id="rqGh7gBejv3GAogL9kbs-266" style="edgeStyle=none;shape=connector;curved=1;rounded=1;html=1;entryX=1;entryY=0.5;entryDx=0;entryDy=0;labelBackgroundColor=default;strokeColor=default;fontFamily=Helvetica;fontSize=11;fontColor=default;endArrow=none;endFill=0;exitX=0;exitY=0.75;exitDx=0;exitDy=0;" parent="rqGh7gBejv3GAogL9kbs-260" source="rqGh7gBejv3GAogL9kbs-261" target="rqGh7gBejv3GAogL9kbs-264" edge="1">
                    <mxGeometry relative="1" as="geometry"/>
                </mxCell>
                <mxCell id="rqGh7gBejv3GAogL9kbs-267" style="html=1;endArrow=none;endFill=0;entryX=0;entryY=0.5;entryDx=0;entryDy=0;exitX=1;exitY=0.25;exitDx=0;exitDy=0;" parent="rqGh7gBejv3GAogL9kbs-255" source="rqGh7gBejv3GAogL9kbs-261" target="rqGh7gBejv3GAogL9kbs-257" edge="1">
                    <mxGeometry relative="1" as="geometry">
                        <mxPoint x="379" y="60" as="targetPoint"/>
                        <mxPoint x="300" y="110" as="sourcePoint"/>
                    </mxGeometry>
                </mxCell>
                <mxCell id="rqGh7gBejv3GAogL9kbs-268" style="html=1;endArrow=none;endFill=0;entryX=0;entryY=0.5;entryDx=0;entryDy=0;" parent="rqGh7gBejv3GAogL9kbs-255" target="rqGh7gBejv3GAogL9kbs-258" edge="1">
                    <mxGeometry relative="1" as="geometry">
                        <mxPoint x="379" y="120" as="targetPoint"/>
                        <mxPoint x="289" y="130" as="sourcePoint"/>
                    </mxGeometry>
                </mxCell>
                <mxCell id="rqGh7gBejv3GAogL9kbs-269" style="shape=connector;rounded=1;html=1;entryX=0;entryY=0.5;entryDx=0;entryDy=0;labelBackgroundColor=default;strokeColor=default;fontFamily=Helvetica;fontSize=11;fontColor=default;endArrow=none;endFill=0;exitX=1;exitY=0.75;exitDx=0;exitDy=0;" parent="rqGh7gBejv3GAogL9kbs-255" source="rqGh7gBejv3GAogL9kbs-261" target="rqGh7gBejv3GAogL9kbs-259" edge="1">
                    <mxGeometry relative="1" as="geometry">
                        <mxPoint x="300" y="130" as="sourcePoint"/>
                        <mxPoint x="379" y="180" as="targetPoint"/>
                    </mxGeometry>
                </mxCell>
                <mxCell id="40" value="FECHA" style="ellipse;whiteSpace=wrap;html=1;fillColor=#30519F;strokeColor=none;gradientColor=none;strokeWidth=2;" parent="rqGh7gBejv3GAogL9kbs-211" vertex="1">
                    <mxGeometry x="140" y="155" width="100" height="40" as="geometry"/>
                </mxCell>
                <mxCell id="41" value="" style="endArrow=none;html=1;entryX=0.75;entryY=1;entryDx=0;entryDy=0;" parent="rqGh7gBejv3GAogL9kbs-211" target="rqGh7gBejv3GAogL9kbs-261" edge="1">
                    <mxGeometry width="50" height="50" relative="1" as="geometry">
                        <mxPoint x="140" y="170" as="sourcePoint"/>
                        <mxPoint x="9" y="95.00000000000023" as="targetPoint"/>
                    </mxGeometry>
                </mxCell>
                <mxCell id="rqGh7gBejv3GAogL9kbs-362" value="estado" style="ellipse;whiteSpace=wrap;html=1;fillColor=#30519F;strokeColor=none;gradientColor=none;strokeWidth=2;" parent="1" vertex="1">
                    <mxGeometry x="1870" y="560" width="100" height="40" as="geometry"/>
                </mxCell>
                <mxCell id="rqGh7gBejv3GAogL9kbs-367" value="" style="endArrow=none;html=1;entryX=0.5;entryY=1;entryDx=0;entryDy=0;exitX=0.5;exitY=0;exitDx=0;exitDy=0;" parent="1" source="rqGh7gBejv3GAogL9kbs-362" target="rqGh7gBejv3GAogL9kbs-261" edge="1">
                    <mxGeometry width="50" height="50" relative="1" as="geometry">
                        <mxPoint x="1670" y="490" as="sourcePoint"/>
                        <mxPoint x="1720" y="440" as="targetPoint"/>
                    </mxGeometry>
                </mxCell>
                <mxCell id="rqGh7gBejv3GAogL9kbs-380" value="GESTIONA" style="rhombus;whiteSpace=wrap;html=1;" parent="1" vertex="1">
                    <mxGeometry x="1670" y="600" width="80" height="80" as="geometry"/>
                </mxCell>
                <mxCell id="rqGh7gBejv3GAogL9kbs-381" value="" style="endArrow=classic;html=1;exitX=0.5;exitY=0;exitDx=0;exitDy=0;entryX=0.5;entryY=1;entryDx=0;entryDy=0;" parent="1" source="rqGh7gBejv3GAogL9kbs-342" target="rqGh7gBejv3GAogL9kbs-380" edge="1">
                    <mxGeometry width="50" height="50" relative="1" as="geometry">
                        <mxPoint x="1310" y="1020" as="sourcePoint"/>
                        <mxPoint x="1480" y="580" as="targetPoint"/>
                    </mxGeometry>
                </mxCell>
                <mxCell id="rqGh7gBejv3GAogL9kbs-382" value="" style="endArrow=classic;html=1;entryX=0.5;entryY=0;entryDx=0;entryDy=0;exitX=0.321;exitY=1.014;exitDx=0;exitDy=0;exitPerimeter=0;" parent="1" target="rqGh7gBejv3GAogL9kbs-380" edge="1" source="rqGh7gBejv3GAogL9kbs-261">
                    <mxGeometry width="50" height="50" relative="1" as="geometry">
                        <mxPoint x="1730" y="480" as="sourcePoint"/>
                        <mxPoint x="1620" y="540" as="targetPoint"/>
                    </mxGeometry>
                </mxCell>
                <mxCell id="rqGh7gBejv3GAogL9kbs-383" value="CREA" style="rhombus;whiteSpace=wrap;html=1;" parent="1" vertex="1">
                    <mxGeometry x="1310" y="320" width="80" height="80" as="geometry"/>
                </mxCell>
                <mxCell id="rqGh7gBejv3GAogL9kbs-384" value="" style="endArrow=classic;html=1;exitX=1;exitY=0.5;exitDx=0;exitDy=0;entryX=0;entryY=0.5;entryDx=0;entryDy=0;" parent="1" source="rqGh7gBejv3GAogL9kbs-154" target="rqGh7gBejv3GAogL9kbs-383" edge="1">
                    <mxGeometry width="50" height="50" relative="1" as="geometry">
                        <mxPoint x="1400" y="520" as="sourcePoint"/>
                        <mxPoint x="1570" y="700" as="targetPoint"/>
                    </mxGeometry>
                </mxCell>
                <mxCell id="rqGh7gBejv3GAogL9kbs-385" value="" style="endArrow=classic;html=1;exitX=0;exitY=0.5;exitDx=0;exitDy=0;entryX=1;entryY=0.5;entryDx=0;entryDy=0;" parent="1" source="rqGh7gBejv3GAogL9kbs-261" target="rqGh7gBejv3GAogL9kbs-383" edge="1">
                    <mxGeometry width="50" height="50" relative="1" as="geometry">
                        <mxPoint x="1039" y="380" as="sourcePoint"/>
                        <mxPoint x="1320" y="370" as="targetPoint"/>
                    </mxGeometry>
                </mxCell>
                <mxCell id="0Y5nADWUnqRcL9e2HvBY-247" value="" style="endArrow=classic;html=1;entryX=0.5;entryY=0;entryDx=0;entryDy=0;exitX=0.5;exitY=1;exitDx=0;exitDy=0;" parent="1" source="0Y5nADWUnqRcL9e2HvBY-93" target="0Y5nADWUnqRcL9e2HvBY-246" edge="1">
                    <mxGeometry width="50" height="50" relative="1" as="geometry">
                        <mxPoint x="959" y="650" as="sourcePoint"/>
                        <mxPoint x="1050" y="905" as="targetPoint"/>
                    </mxGeometry>
                </mxCell>
                <mxCell id="0Y5nADWUnqRcL9e2HvBY-276" style="edgeStyle=none;html=1;entryX=0.5;entryY=1;entryDx=0;entryDy=0;startArrow=none;startFill=0;endArrow=none;endFill=0;exitX=1;exitY=0.5;exitDx=0;exitDy=0;" parent="1" source="rqGh7gBejv3GAogL9kbs-386" target="rqGh7gBejv3GAogL9kbs-201" edge="1">
                    <mxGeometry relative="1" as="geometry"/>
                </mxCell>
                <mxCell id="rqGh7gBejv3GAogL9kbs-386" value="CREA" style="rhombus;whiteSpace=wrap;html=1;" parent="1" vertex="1">
                    <mxGeometry x="2060" y="910" width="80" height="80" as="geometry"/>
                </mxCell>
                <mxCell id="0Y5nADWUnqRcL9e2HvBY-249" value="SE BASA EN" style="rhombus;whiteSpace=wrap;html=1;" parent="1" vertex="1">
                    <mxGeometry x="229" y="830" width="80" height="80" as="geometry"/>
                </mxCell>
                <mxCell id="0Y5nADWUnqRcL9e2HvBY-250" style="edgeStyle=none;html=1;entryX=0.5;entryY=0;entryDx=0;entryDy=0;" parent="1" source="rqGh7gBejv3GAogL9kbs-185" target="0Y5nADWUnqRcL9e2HvBY-249" edge="1">
                    <mxGeometry relative="1" as="geometry"/>
                </mxCell>
                <mxCell id="rqGh7gBejv3GAogL9kbs-136" value="fecha_reserva" style="ellipse;whiteSpace=wrap;html=1;fillColor=#30519F;strokeColor=none;gradientColor=none;strokeWidth=2;" parent="1" vertex="1">
                    <mxGeometry x="1100" y="650" width="100" height="40" as="geometry"/>
                </mxCell>
                <mxCell id="0Y5nADWUnqRcL9e2HvBY-266" style="edgeStyle=none;html=1;entryX=0;entryY=0;entryDx=0;entryDy=0;startArrow=none;startFill=0;endArrow=none;endFill=0;" parent="1" source="0Y5nADWUnqRcL9e2HvBY-93" target="rqGh7gBejv3GAogL9kbs-136" edge="1">
                    <mxGeometry relative="1" as="geometry"/>
                </mxCell>
                <mxCell id="rqGh7gBejv3GAogL9kbs-157" value="apellidos" style="ellipse;whiteSpace=wrap;html=1;fillColor=#30519F;strokeColor=none;gradientColor=none;strokeWidth=2;" parent="1" vertex="1">
                    <mxGeometry x="620" y="350" width="100" height="40" as="geometry"/>
                </mxCell>
                <mxCell id="rqGh7gBejv3GAogL9kbs-159" style="edgeStyle=none;shape=connector;curved=1;rounded=1;html=1;entryX=1;entryY=0.5;entryDx=0;entryDy=0;labelBackgroundColor=default;strokeColor=default;fontFamily=Helvetica;fontSize=11;fontColor=default;endArrow=none;endFill=0;exitX=0;exitY=0.75;exitDx=0;exitDy=0;" parent="1" source="rqGh7gBejv3GAogL9kbs-154" target="rqGh7gBejv3GAogL9kbs-157" edge="1">
                    <mxGeometry relative="1" as="geometry"/>
                </mxCell>
                <mxCell id="rqGh7gBejv3GAogL9kbs-158" value="nombre" style="ellipse;whiteSpace=wrap;html=1;fillColor=#30519F;strokeColor=none;gradientColor=none;strokeWidth=2;" parent="1" vertex="1">
                    <mxGeometry x="610" y="290" width="100" height="40" as="geometry"/>
                </mxCell>
                <mxCell id="rqGh7gBejv3GAogL9kbs-155" value="" style="endArrow=none;html=1;exitX=1;exitY=0.5;exitDx=0;exitDy=0;entryX=0;entryY=0.25;entryDx=0;entryDy=0;" parent="1" source="rqGh7gBejv3GAogL9kbs-158" target="rqGh7gBejv3GAogL9kbs-154" edge="1">
                    <mxGeometry width="50" height="50" relative="1" as="geometry">
                        <mxPoint x="929" y="483" as="sourcePoint"/>
                        <mxPoint x="879" y="393" as="targetPoint"/>
                    </mxGeometry>
                </mxCell>
                <mxCell id="rqGh7gBejv3GAogL9kbs-150" value="&lt;b&gt;&lt;u&gt;id&lt;/u&gt;&lt;/b&gt;" style="ellipse;whiteSpace=wrap;html=1;fillColor=#30519F;strokeColor=none;gradientColor=none;strokeWidth=2;" parent="1" vertex="1">
                    <mxGeometry x="640" y="230" width="100" height="40" as="geometry"/>
                </mxCell>
                <mxCell id="rqGh7gBejv3GAogL9kbs-160" style="html=1;endArrow=none;endFill=0;entryX=1;entryY=1;entryDx=0;entryDy=0;exitX=0;exitY=0;exitDx=0;exitDy=0;" parent="1" source="rqGh7gBejv3GAogL9kbs-154" target="rqGh7gBejv3GAogL9kbs-150" edge="1">
                    <mxGeometry relative="1" as="geometry">
                        <mxPoint x="1119" y="300" as="targetPoint"/>
                        <mxPoint x="1040" y="350" as="sourcePoint"/>
                    </mxGeometry>
                </mxCell>
                <mxCell id="0Y5nADWUnqRcL9e2HvBY-269" style="edgeStyle=none;html=1;startArrow=none;startFill=0;endArrow=none;endFill=0;entryX=0.5;entryY=0;entryDx=0;entryDy=0;" parent="1" source="rqGh7gBejv3GAogL9kbs-154" target="0Y5nADWUnqRcL9e2HvBY-270" edge="1">
                    <mxGeometry relative="1" as="geometry">
                        <mxPoint x="490" y="480" as="targetPoint"/>
                    </mxGeometry>
                </mxCell>
                <mxCell id="0Y5nADWUnqRcL9e2HvBY-271" style="edgeStyle=none;html=1;entryX=0.5;entryY=0;entryDx=0;entryDy=0;startArrow=none;startFill=0;endArrow=none;endFill=0;" parent="1" source="0Y5nADWUnqRcL9e2HvBY-270" target="rqGh7gBejv3GAogL9kbs-185" edge="1">
                    <mxGeometry relative="1" as="geometry"/>
                </mxCell>
                <mxCell id="0Y5nADWUnqRcL9e2HvBY-270" value="SE BASA EN" style="rhombus;whiteSpace=wrap;html=1;" parent="1" vertex="1">
                    <mxGeometry x="550" y="490" width="80" height="80" as="geometry"/>
                </mxCell>
                <mxCell id="0Y5nADWUnqRcL9e2HvBY-272" style="edgeStyle=none;html=1;startArrow=none;startFill=0;endArrow=none;endFill=0;entryX=1;entryY=0.5;entryDx=0;entryDy=0;" parent="1" source="rqGh7gBejv3GAogL9kbs-300" target="0Y5nADWUnqRcL9e2HvBY-273" edge="1">
                    <mxGeometry relative="1" as="geometry">
                        <mxPoint x="570" y="950" as="targetPoint"/>
                    </mxGeometry>
                </mxCell>
                <mxCell id="0Y5nADWUnqRcL9e2HvBY-273" value="SE BASA EN" style="rhombus;whiteSpace=wrap;html=1;" parent="1" vertex="1">
                    <mxGeometry x="440" y="840" width="80" height="80" as="geometry"/>
                </mxCell>
                <mxCell id="0Y5nADWUnqRcL9e2HvBY-274" style="edgeStyle=none;html=1;entryX=0.5;entryY=0;entryDx=0;entryDy=0;startArrow=none;startFill=0;endArrow=none;endFill=0;" parent="1" source="rqGh7gBejv3GAogL9kbs-185" target="0Y5nADWUnqRcL9e2HvBY-273" edge="1">
                    <mxGeometry relative="1" as="geometry"/>
                </mxCell>
                <mxCell id="rqGh7gBejv3GAogL9kbs-397" value="1: n" style="text;html=1;align=center;verticalAlign=middle;resizable=0;points=[];autosize=1;strokeColor=none;fillColor=none;" parent="1" vertex="1">
                    <mxGeometry x="1330" y="275" width="40" height="30" as="geometry"/>
                </mxCell>
                <mxCell id="rqGh7gBejv3GAogL9kbs-398" value="1:n" style="text;html=1;align=center;verticalAlign=middle;resizable=0;points=[];autosize=1;strokeColor=none;fillColor=none;" parent="1" vertex="1">
                    <mxGeometry x="1360" y="1185" width="40" height="30" as="geometry"/>
                </mxCell>
                <mxCell id="rqGh7gBejv3GAogL9kbs-399" value="1:n" style="text;html=1;align=center;verticalAlign=middle;resizable=0;points=[];autosize=1;strokeColor=none;fillColor=none;" parent="1" vertex="1">
                    <mxGeometry x="1010" y="1095" width="40" height="30" as="geometry"/>
                </mxCell>
                <mxCell id="rqGh7gBejv3GAogL9kbs-401" value="1:n" style="text;html=1;align=center;verticalAlign=middle;resizable=0;points=[];autosize=1;strokeColor=none;fillColor=none;" parent="1" vertex="1">
                    <mxGeometry x="1010" y="475" width="40" height="30" as="geometry"/>
                </mxCell>
                <mxCell id="rqGh7gBejv3GAogL9kbs-402" value="1:n" style="text;html=1;align=center;verticalAlign=middle;resizable=0;points=[];autosize=1;strokeColor=none;fillColor=none;" parent="1" vertex="1">
                    <mxGeometry x="499" y="505" width="40" height="30" as="geometry"/>
                </mxCell>
                <mxCell id="rqGh7gBejv3GAogL9kbs-403" value="1:n" style="text;html=1;align=center;verticalAlign=middle;resizable=0;points=[];autosize=1;strokeColor=none;fillColor=none;" parent="1" vertex="1">
                    <mxGeometry x="459" y="910" width="40" height="30" as="geometry"/>
                </mxCell>
                <mxCell id="rqGh7gBejv3GAogL9kbs-404" value="1:n" style="text;html=1;align=center;verticalAlign=middle;resizable=0;points=[];autosize=1;strokeColor=none;fillColor=none;" parent="1" vertex="1">
                    <mxGeometry x="90" y="765" width="40" height="30" as="geometry"/>
                </mxCell>
                <mxCell id="0Y5nADWUnqRcL9e2HvBY-275" style="edgeStyle=none;html=1;entryX=0;entryY=0.5;entryDx=0;entryDy=0;startArrow=none;startFill=0;endArrow=none;endFill=0;" parent="1" source="rqGh7gBejv3GAogL9kbs-342" target="rqGh7gBejv3GAogL9kbs-386" edge="1">
                    <mxGeometry relative="1" as="geometry"/>
                </mxCell>
                <mxCell id="rqGh7gBejv3GAogL9kbs-405" value="1:n" style="text;html=1;align=center;verticalAlign=middle;resizable=0;points=[];autosize=1;strokeColor=none;fillColor=none;" parent="1" vertex="1">
                    <mxGeometry x="2080" y="1010" width="40" height="30" as="geometry"/>
                </mxCell>
                <mxCell id="rqGh7gBejv3GAogL9kbs-406" value="GESTIONA" style="rhombus;whiteSpace=wrap;html=1;" parent="1" vertex="1">
                    <mxGeometry x="1990" y="600" width="80" height="80" as="geometry"/>
                </mxCell>
                <mxCell id="rqGh7gBejv3GAogL9kbs-407" value="" style="endArrow=classic;html=1;entryX=0;entryY=0.5;entryDx=0;entryDy=0;exitX=0.686;exitY=0.01;exitDx=0;exitDy=0;exitPerimeter=0;" parent="1" source="rqGh7gBejv3GAogL9kbs-342" target="rqGh7gBejv3GAogL9kbs-406" edge="1">
                    <mxGeometry width="50" height="50" relative="1" as="geometry">
                        <mxPoint x="1780" y="700" as="sourcePoint"/>
                        <mxPoint x="1830" y="650" as="targetPoint"/>
                    </mxGeometry>
                </mxCell>
                <mxCell id="rqGh7gBejv3GAogL9kbs-408" value="" style="endArrow=classic;html=1;entryX=0;entryY=0.5;entryDx=0;entryDy=0;exitX=0.5;exitY=0;exitDx=0;exitDy=0;" parent="1" source="rqGh7gBejv3GAogL9kbs-406" target="rqGh7gBejv3GAogL9kbs-321" edge="1">
                    <mxGeometry width="50" height="50" relative="1" as="geometry">
                        <mxPoint x="1725.04" y="845.7" as="sourcePoint"/>
                        <mxPoint x="2000" y="650" as="targetPoint"/>
                    </mxGeometry>
                </mxCell>
                <mxCell id="rqGh7gBejv3GAogL9kbs-409" value="1: n" style="text;html=1;align=center;verticalAlign=middle;resizable=0;points=[];autosize=1;strokeColor=none;fillColor=none;" parent="1" vertex="1">
                    <mxGeometry x="1990" y="555" width="40" height="30" as="geometry"/>
                </mxCell>
                <mxCell id="rqGh7gBejv3GAogL9kbs-197" value="fecha" style="ellipse;whiteSpace=wrap;html=1;fillColor=#30519F;strokeColor=none;gradientColor=none;strokeWidth=2;" parent="1" vertex="1">
                    <mxGeometry x="2370" y="680" width="100" height="40" as="geometry"/>
                </mxCell>
                <mxCell id="rqGh7gBejv3GAogL9kbs-207" style="html=1;endArrow=none;endFill=0;entryX=0.5;entryY=1;entryDx=0;entryDy=0;exitX=0.5;exitY=0;exitDx=0;exitDy=0;" parent="1" source="rqGh7gBejv3GAogL9kbs-201" target="rqGh7gBejv3GAogL9kbs-197" edge="1">
                    <mxGeometry relative="1" as="geometry">
                        <mxPoint x="2589" y="780" as="targetPoint"/>
                        <mxPoint x="2510" y="830" as="sourcePoint"/>
                    </mxGeometry>
                </mxCell>
                <mxCell id="30" value="NOMBRE" style="ellipse;whiteSpace=wrap;html=1;fillColor=#30519F;strokeColor=none;gradientColor=none;strokeWidth=2;" parent="1" vertex="1">
                    <mxGeometry x="1140" y="1460" width="100" height="40" as="geometry"/>
                </mxCell>
                <mxCell id="32" style="edgeStyle=none;shape=connector;curved=1;rounded=1;html=1;labelBackgroundColor=default;strokeColor=default;fontFamily=Helvetica;fontSize=11;fontColor=default;endArrow=none;endFill=0;exitX=0;exitY=1;exitDx=0;exitDy=0;entryX=0.942;entryY=0.305;entryDx=0;entryDy=0;entryPerimeter=0;" parent="1" source="rqGh7gBejv3GAogL9kbs-231" target="30" edge="1">
                    <mxGeometry relative="1" as="geometry">
                        <mxPoint x="1289" y="1447.5" as="sourcePoint"/>
                        <mxPoint x="1240" y="1470" as="targetPoint"/>
                    </mxGeometry>
                </mxCell>
                <mxCell id="33" value="&lt;b&gt;&lt;u&gt;ADMINISTRADOR_ID&lt;/u&gt;&lt;/b&gt;" style="ellipse;whiteSpace=wrap;html=1;fillColor=#30519F;strokeColor=none;gradientColor=none;strokeWidth=2;" parent="1" vertex="1">
                    <mxGeometry x="1490" y="1480" width="100" height="40" as="geometry"/>
                </mxCell>
                <mxCell id="34" style="html=1;endArrow=none;endFill=0;entryX=0;entryY=0.5;entryDx=0;entryDy=0;exitX=1;exitY=1;exitDx=0;exitDy=0;" parent="1" source="rqGh7gBejv3GAogL9kbs-231" target="33" edge="1">
                    <mxGeometry relative="1" as="geometry">
                        <mxPoint x="1500" y="1440" as="targetPoint"/>
                        <mxPoint x="1429" y="1430" as="sourcePoint"/>
                    </mxGeometry>
                </mxCell>
                <mxCell id="38" value="&lt;b&gt;&lt;u&gt;inscripcion_id*&lt;/u&gt;&lt;/b&gt;" style="ellipse;whiteSpace=wrap;html=1;fillColor=#30519F;strokeColor=none;gradientColor=none;strokeWidth=2;" parent="1" vertex="1">
                    <mxGeometry x="390" y="580" width="100" height="40" as="geometry"/>
                </mxCell>
                <mxCell id="39" value="" style="endArrow=none;html=1;exitX=0.5;exitY=1;exitDx=0;exitDy=0;entryX=0.25;entryY=0;entryDx=0;entryDy=0;" parent="1" source="38" target="rqGh7gBejv3GAogL9kbs-185" edge="1">
                    <mxGeometry width="50" height="50" relative="1" as="geometry">
                        <mxPoint x="355.1455206038281" y="644.2255678634542" as="sourcePoint"/>
                        <mxPoint x="419" y="687.5" as="targetPoint"/>
                    </mxGeometry>
                </mxCell>
                <mxCell id="46" value="SE RELACIONA" style="rhombus;whiteSpace=wrap;html=1;" parent="1" vertex="1">
                    <mxGeometry x="720" y="630" width="80" height="80" as="geometry"/>
                </mxCell>
                <mxCell id="47" value="" style="endArrow=none;html=1;entryX=0;entryY=0.5;entryDx=0;entryDy=0;exitX=1;exitY=0.25;exitDx=0;exitDy=0;" parent="1" source="rqGh7gBejv3GAogL9kbs-185" target="46" edge="1">
                    <mxGeometry width="50" height="50" relative="1" as="geometry">
                        <mxPoint x="460" y="750" as="sourcePoint"/>
                        <mxPoint x="510" y="700" as="targetPoint"/>
                    </mxGeometry>
                </mxCell>
                <mxCell id="48" value="" style="endArrow=none;html=1;entryX=0;entryY=1;entryDx=0;entryDy=0;exitX=1;exitY=0.5;exitDx=0;exitDy=0;" parent="1" source="46" target="0Y5nADWUnqRcL9e2HvBY-93" edge="1">
                    <mxGeometry width="50" height="50" relative="1" as="geometry">
                        <mxPoint x="559" y="687.5" as="sourcePoint"/>
                        <mxPoint x="730" y="680" as="targetPoint"/>
                    </mxGeometry>
                </mxCell>
                <mxCell id="44" value="GRUPO_ID" style="ellipse;whiteSpace=wrap;html=1;fillColor=#30519F;strokeColor=none;gradientColor=none;strokeWidth=2;" parent="1" vertex="1">
                    <mxGeometry x="1110" y="1040" width="100" height="40" as="geometry"/>
                </mxCell>
                <mxCell id="45" style="shape=connector;rounded=1;html=1;entryX=0.035;entryY=0.298;entryDx=0;entryDy=0;labelBackgroundColor=default;strokeColor=default;fontFamily=Helvetica;fontSize=11;fontColor=default;endArrow=none;endFill=0;exitX=0.75;exitY=1;exitDx=0;exitDy=0;entryPerimeter=0;" parent="1" source="rqGh7gBejv3GAogL9kbs-300" target="44" edge="1">
                    <mxGeometry relative="1" as="geometry">
                        <mxPoint x="1049" y="877.5" as="sourcePoint"/>
                        <mxPoint x="1110.000000000007" y="960" as="targetPoint"/>
                    </mxGeometry>
                </mxCell>
                <mxCell id="rqGh7gBejv3GAogL9kbs-205" value="&lt;u&gt;&lt;b&gt;id&lt;/b&gt;&lt;/u&gt;" style="ellipse;whiteSpace=wrap;html=1;fillColor=#30519F;strokeColor=none;gradientColor=none;strokeWidth=2;" parent="1" vertex="1">
                    <mxGeometry x="2280" y="725" width="100" height="40" as="geometry"/>
                </mxCell>
                <mxCell id="rqGh7gBejv3GAogL9kbs-202" value="" style="endArrow=none;html=1;exitX=0.5;exitY=1;exitDx=0;exitDy=0;entryX=0.25;entryY=0;entryDx=0;entryDy=0;" parent="1" source="rqGh7gBejv3GAogL9kbs-205" target="rqGh7gBejv3GAogL9kbs-201" edge="1">
                    <mxGeometry width="50" height="50" relative="1" as="geometry">
                        <mxPoint x="2399" y="963" as="sourcePoint"/>
                        <mxPoint x="2349" y="873" as="targetPoint"/>
                    </mxGeometry>
                </mxCell>
                <mxCell id="78" style="edgeStyle=none;html=1;" edge="1" parent="1" source="73">
                    <mxGeometry relative="1" as="geometry">
                        <mxPoint x="2840" y="520" as="targetPoint"/>
                    </mxGeometry>
                </mxCell>
                <mxCell id="86" style="edgeStyle=none;html=1;entryX=0.5;entryY=0;entryDx=0;entryDy=0;" edge="1" parent="1" source="73" target="84">
                    <mxGeometry relative="1" as="geometry"/>
                </mxCell>
                <mxCell id="93" style="edgeStyle=none;html=1;" edge="1" parent="1" source="73" target="92">
                    <mxGeometry relative="1" as="geometry"/>
                </mxCell>
                <mxCell id="73" value="&lt;b&gt;&lt;font style=&quot;font-size: 16px;&quot;&gt;ACTIVIDAD CREADA&lt;/font&gt;&lt;/b&gt;" style="rounded=0;whiteSpace=wrap;html=1;fillColor=#1B213D;strokeColor=none;fontColor=#ffffff;" vertex="1" parent="1">
                    <mxGeometry x="2680" y="495" width="120" height="60" as="geometry"/>
                </mxCell>
                <mxCell id="rqGh7gBejv3GAogL9kbs-318" value="dni" style="ellipse;whiteSpace=wrap;html=1;fillColor=#30519F;strokeColor=none;gradientColor=none;strokeWidth=2;" parent="1" vertex="1">
                    <mxGeometry x="2280" y="370" width="100" height="40" as="geometry"/>
                </mxCell>
                <mxCell id="rqGh7gBejv3GAogL9kbs-330" value="" style="endArrow=none;html=1;entryX=0.5;entryY=1;entryDx=0;entryDy=0;exitX=0.5;exitY=0;exitDx=0;exitDy=0;" parent="1" source="rqGh7gBejv3GAogL9kbs-321" target="rqGh7gBejv3GAogL9kbs-318" edge="1">
                    <mxGeometry width="50" height="50" relative="1" as="geometry">
                        <mxPoint x="2360" y="680" as="sourcePoint"/>
                        <mxPoint x="2410" y="630" as="targetPoint"/>
                    </mxGeometry>
                </mxCell>
                <mxCell id="rqGh7gBejv3GAogL9kbs-220" value="&lt;u&gt;&lt;b&gt;id&lt;/b&gt;&lt;/u&gt;" style="ellipse;whiteSpace=wrap;html=1;fillColor=#30519F;strokeColor=none;gradientColor=none;strokeWidth=2;" parent="1" vertex="1">
                    <mxGeometry x="3010" y="640" width="100" height="40" as="geometry"/>
                </mxCell>
                <mxCell id="rqGh7gBejv3GAogL9kbs-217" value="" style="endArrow=none;html=1;entryX=0.5;entryY=1;entryDx=0;entryDy=0;" parent="1" source="rqGh7gBejv3GAogL9kbs-220" target="rqGh7gBejv3GAogL9kbs-216" edge="1">
                    <mxGeometry width="50" height="50" relative="1" as="geometry">
                        <mxPoint x="2999" y="658" as="sourcePoint"/>
                        <mxPoint x="2949" y="568" as="targetPoint"/>
                    </mxGeometry>
                </mxCell>
                <mxCell id="rqGh7gBejv3GAogL9kbs-219" value="nombre" style="ellipse;whiteSpace=wrap;html=1;fillColor=#30519F;strokeColor=none;gradientColor=none;strokeWidth=2;" parent="1" vertex="1">
                    <mxGeometry x="2900" y="640" width="100" height="40" as="geometry"/>
                </mxCell>
                <mxCell id="81" value="" style="edgeStyle=none;html=1;exitX=-0.002;exitY=0.407;exitDx=0;exitDy=0;exitPerimeter=0;entryX=1;entryY=0.5;entryDx=0;entryDy=0;" edge="1" parent="1" source="73" target="74">
                    <mxGeometry relative="1" as="geometry">
                        <mxPoint x="2610" y="550" as="targetPoint"/>
                    </mxGeometry>
                </mxCell>
                <mxCell id="84" value="TIENE" style="rhombus;whiteSpace=wrap;html=1;" vertex="1" parent="1">
                    <mxGeometry x="2700" y="810" width="80" height="80" as="geometry"/>
                </mxCell>
                <mxCell id="85" style="edgeStyle=none;html=1;entryX=0;entryY=0.5;entryDx=0;entryDy=0;exitX=1;exitY=0.5;exitDx=0;exitDy=0;" edge="1" parent="1" source="rqGh7gBejv3GAogL9kbs-201" target="84">
                    <mxGeometry relative="1" as="geometry"/>
                </mxCell>
                <mxCell id="rqGh7gBejv3GAogL9kbs-319" value="telf1" style="ellipse;whiteSpace=wrap;html=1;fillColor=#30519F;strokeColor=none;gradientColor=none;strokeWidth=2;" parent="1" vertex="1">
                    <mxGeometry x="2380" y="380" width="100" height="40" as="geometry"/>
                </mxCell>
                <mxCell id="rqGh7gBejv3GAogL9kbs-331" value="" style="endArrow=none;html=1;entryX=0.5;entryY=1;entryDx=0;entryDy=0;exitX=0.75;exitY=0;exitDx=0;exitDy=0;" parent="1" source="rqGh7gBejv3GAogL9kbs-321" target="rqGh7gBejv3GAogL9kbs-319" edge="1">
                    <mxGeometry width="50" height="50" relative="1" as="geometry">
                        <mxPoint x="2360" y="680" as="sourcePoint"/>
                        <mxPoint x="2410" y="630" as="targetPoint"/>
                    </mxGeometry>
                </mxCell>
                <mxCell id="92" value="&lt;b&gt;&lt;u&gt;id&lt;/u&gt;&lt;/b&gt;" style="ellipse;whiteSpace=wrap;html=1;fillColor=#30519F;strokeColor=none;gradientColor=none;strokeWidth=2;" vertex="1" parent="1">
                    <mxGeometry x="2630" y="400" width="100" height="40" as="geometry"/>
                </mxCell>
                <mxCell id="95" value="duracion" style="ellipse;whiteSpace=wrap;html=1;fillColor=#30519F;strokeColor=none;gradientColor=none;strokeWidth=2;" vertex="1" parent="1">
                    <mxGeometry x="2750" y="400" width="100" height="40" as="geometry"/>
                </mxCell>
                <mxCell id="97" style="edgeStyle=none;html=1;entryX=0.711;entryY=0.003;entryDx=0;entryDy=0;startArrow=none;startFill=0;endArrow=none;endFill=0;exitX=0.34;exitY=1;exitDx=0;exitDy=0;exitPerimeter=0;entryPerimeter=0;" edge="1" parent="1" source="95" target="73">
                    <mxGeometry relative="1" as="geometry">
                        <mxPoint x="2769.96" y="515" as="targetPoint"/>
                        <mxPoint x="2761.893377874666" y="439.98565534369845" as="sourcePoint"/>
                    </mxGeometry>
                </mxCell>
                <mxCell id="99" style="edgeStyle=none;shape=connector;curved=1;rounded=1;html=1;entryX=0.305;entryY=0.22;entryDx=0;entryDy=0;labelBackgroundColor=default;strokeColor=default;fontFamily=Helvetica;fontSize=11;fontColor=default;endArrow=none;endFill=0;entryPerimeter=0;exitX=0.5;exitY=1;exitDx=0;exitDy=0;" edge="1" parent="1" source="98" target="74">
                    <mxGeometry relative="1" as="geometry">
                        <mxPoint x="2540" y="290" as="sourcePoint"/>
                        <mxPoint x="2640" y="430" as="targetPoint"/>
                    </mxGeometry>
                </mxCell>
                <mxCell id="98" value="&lt;b&gt;&lt;i&gt;&lt;u&gt;monitor_id*&lt;/u&gt;&lt;/i&gt;&lt;/b&gt;" style="ellipse;whiteSpace=wrap;html=1;fillColor=#30519F;strokeColor=none;gradientColor=none;strokeWidth=2;" vertex="1" parent="1">
                    <mxGeometry x="2480" y="250" width="100" height="40" as="geometry"/>
                </mxCell>
                <mxCell id="100" value="&lt;b&gt;&lt;u&gt;&lt;i&gt;actividad_creada_id*&lt;/i&gt;&lt;/u&gt;&lt;/b&gt;" style="ellipse;whiteSpace=wrap;html=1;fillColor=#30519F;strokeColor=none;gradientColor=none;strokeWidth=2;" vertex="1" parent="1">
                    <mxGeometry x="2590" y="250" width="150" height="40" as="geometry"/>
                </mxCell>
                <mxCell id="101" style="edgeStyle=none;html=1;" edge="1" parent="1" source="74" target="100">
                    <mxGeometry relative="1" as="geometry"/>
                </mxCell>
                <mxCell id="102" style="html=1;endArrow=none;endFill=0;exitX=0.099;exitY=0.997;exitDx=0;exitDy=0;exitPerimeter=0;entryX=0.5;entryY=0;entryDx=0;entryDy=0;" edge="1" parent="1" source="rqGh7gBejv3GAogL9kbs-216" target="rqGh7gBejv3GAogL9kbs-219">
                    <mxGeometry relative="1" as="geometry">
                        <mxPoint x="3180" y="595" as="targetPoint"/>
                        <mxPoint x="3109" y="572.5" as="sourcePoint"/>
                    </mxGeometry>
                </mxCell>
                <mxCell id="rqGh7gBejv3GAogL9kbs-213" value="descripción" style="ellipse;whiteSpace=wrap;html=1;fillColor=#30519F;strokeColor=none;gradientColor=none;strokeWidth=2;" parent="1" vertex="1">
                    <mxGeometry x="3120" y="640" width="100" height="40" as="geometry"/>
                </mxCell>
                <mxCell id="rqGh7gBejv3GAogL9kbs-223" style="html=1;endArrow=none;endFill=0;exitX=1;exitY=1;exitDx=0;exitDy=0;entryX=0.305;entryY=-0.006;entryDx=0;entryDy=0;entryPerimeter=0;" parent="1" source="rqGh7gBejv3GAogL9kbs-216" edge="1" target="rqGh7gBejv3GAogL9kbs-213">
                    <mxGeometry relative="1" as="geometry">
                        <mxPoint x="3170" y="585" as="targetPoint"/>
                        <mxPoint x="3110" y="535" as="sourcePoint"/>
                    </mxGeometry>
                </mxCell>
                <mxCell id="103" value="n:m" style="text;html=1;align=center;verticalAlign=middle;resizable=0;points=[];autosize=1;strokeColor=none;fillColor=none;" vertex="1" parent="1">
                    <mxGeometry x="2860" y="455" width="40" height="30" as="geometry"/>
                </mxCell>
                <mxCell id="104" style="edgeStyle=none;shape=connector;curved=1;rounded=1;html=1;labelBackgroundColor=default;strokeColor=default;fontFamily=Helvetica;fontSize=11;fontColor=default;endArrow=none;endFill=0;exitX=0;exitY=0.5;exitDx=0;exitDy=0;entryX=0.844;entryY=0.367;entryDx=0;entryDy=0;entryPerimeter=0;" edge="1" parent="1" source="105" target="75">
                    <mxGeometry relative="1" as="geometry">
                        <mxPoint x="2880" y="277.4" as="sourcePoint"/>
                        <mxPoint x="2900" y="500" as="targetPoint"/>
                    </mxGeometry>
                </mxCell>
                <mxCell id="105" value="&lt;b&gt;&lt;i&gt;&lt;u&gt;actividad_id*&lt;/u&gt;&lt;/i&gt;&lt;/b&gt;" style="ellipse;whiteSpace=wrap;html=1;fillColor=#30519F;strokeColor=none;gradientColor=none;strokeWidth=2;" vertex="1" parent="1">
                    <mxGeometry x="3040" y="440" width="100" height="40" as="geometry"/>
                </mxCell>
                <mxCell id="106" value="&lt;b&gt;&lt;u&gt;&lt;i&gt;actividad_creada_id*&lt;/i&gt;&lt;/u&gt;&lt;/b&gt;" style="ellipse;whiteSpace=wrap;html=1;fillColor=#30519F;strokeColor=none;gradientColor=none;strokeWidth=2;" vertex="1" parent="1">
                    <mxGeometry x="2970" y="400" width="150" height="40" as="geometry"/>
                </mxCell>
                <mxCell id="107" style="edgeStyle=none;html=1;endArrow=none;endFill=0;" edge="1" parent="1" source="75" target="106">
                    <mxGeometry relative="1" as="geometry">
                        <mxPoint x="2929.8550724637685" y="487.2550724637682" as="sourcePoint"/>
                    </mxGeometry>
                </mxCell>
                <mxCell id="108" value="n:m" style="text;html=1;align=center;verticalAlign=middle;resizable=0;points=[];autosize=1;strokeColor=none;fillColor=none;" vertex="1" parent="1">
                    <mxGeometry x="2720" y="900" width="40" height="30" as="geometry"/>
                </mxCell>
                <mxCell id="109" style="edgeStyle=none;shape=connector;curved=1;rounded=1;html=1;labelBackgroundColor=default;strokeColor=default;fontFamily=Helvetica;fontSize=11;fontColor=default;endArrow=none;endFill=0;exitX=0;exitY=0.5;exitDx=0;exitDy=0;entryX=1;entryY=1;entryDx=0;entryDy=0;" edge="1" parent="1" source="110" target="84">
                    <mxGeometry relative="1" as="geometry">
                        <mxPoint x="2820" y="732.4" as="sourcePoint"/>
                        <mxPoint x="2847.5200000000004" y="964.3599999999999" as="targetPoint"/>
                    </mxGeometry>
                </mxCell>
                <mxCell id="110" value="&lt;b&gt;&lt;i&gt;&lt;u&gt;cronograma_id*&lt;/u&gt;&lt;/i&gt;&lt;/b&gt;" style="ellipse;whiteSpace=wrap;html=1;fillColor=#30519F;strokeColor=none;gradientColor=none;strokeWidth=2;" vertex="1" parent="1">
                    <mxGeometry x="2860" y="880" width="100" height="40" as="geometry"/>
                </mxCell>
                <mxCell id="111" value="&lt;b&gt;&lt;u&gt;&lt;i&gt;actividad_creada_id*&lt;/i&gt;&lt;/u&gt;&lt;/b&gt;" style="ellipse;whiteSpace=wrap;html=1;fillColor=#30519F;strokeColor=none;gradientColor=none;strokeWidth=2;" vertex="1" parent="1">
                    <mxGeometry x="2840" y="830" width="150" height="40" as="geometry"/>
                </mxCell>
                <mxCell id="112" style="edgeStyle=none;html=1;endArrow=none;endFill=0;" edge="1" parent="1" source="84" target="111">
                    <mxGeometry relative="1" as="geometry">
                        <mxPoint x="2833.888888888889" y="948.8888888888889" as="sourcePoint"/>
                    </mxGeometry>
                </mxCell>
            </root>
        </mxGraphModel>
    </diagram>
</mxfile>